<svg xmlns="http://www.w3.org/2000/svg" width="374" height="58"><path d="M146.945 40.584c-4.936-.114-3.537-3.526-3.537-3.526l6.425-14.673h4.182l.849-1.963h-4.182l2.692-5.96h-11.153l-10.853 24.515s-2.5 4.876 2.663 4.876h11.546zm18.074 0c-4.937-.114-3.537-3.526-3.537-3.526l6.424-14.673h4.183l.848-1.963h-4.182l2.693-5.96h-11.154l-10.852 24.515s-2.5 4.876 2.662 4.876h11.547zm170.875 3.268h-11.152L335.1 20.423h11.153zM101.346 20.423h-7.668l2.678-5.96H85.393L74.278 39.419s-2.653 4.434 2.637 4.434h17.344c3.921 0 5.462-3.743 5.462-3.743l6.822-15.572s2.044-4.115-5.197-4.115zm-5.2 4.337l-6.478 14.754a1.936 1.936 0 0 1-1.618 1.075h-2a.7.7 0 0 1-.672-1.075l6.473-14.754a1.936 1.936 0 0 1 1.618-1.075h2a.7.7 0 0 1 .673 1.075zm195.814-4.337l-8.3 19.091a1.935 1.935 0 0 1-1.619 1.075h-2a.7.7 0 0 1-.67-1.075l8.3-19.091h-11.163l-8.465 19s-2.65 4.434 2.637 4.434h17.345c3.92 0 5.461-3.743 5.461-3.743l8.476-19.687h-10.006zm68.478 11.714l-3.238 7.377a1.935 1.935 0 0 1-1.618 1.075h-2a.7.7 0 0 1-.672-1.075l6.475-14.753A1.935 1.935 0 0 1 361 23.686h2a.7.7 0 0 1 .672 1.075l-2.451 5.583h10.088l2.543-5.805s2.045-4.116-5.2-4.116h-18.6l-8.464 19s-2.651 4.434 2.636 4.434h17.345c3.921 0 5.462-3.743 5.462-3.743l3.492-7.973h-10.089zm-94.47-11.714h-33.175l-10.4 23.43h10.941l8.189-18.472a1.752 1.752 0 0 1 1.465-.972h1.81a.634.634 0 0 1 .607.972l-8.185 18.472h10.6l8.189-18.472a1.748 1.748 0 0 1 1.465-.972h1.811a.634.634 0 0 1 .607.972L251.7 43.853h10.81l8.59-19.315s2.314-4.115-5.136-4.115zm58.665 0h-18.609l-4.424 9.921h-.014l-.15.353-.666 1.44h15.226l-3.237 7.377a1.935 1.935 0 0 1-1.617 1.075h-2a.7.7 0 0 1-.672-1.075l2.449-5.583h-10.851l-2.452 5.805s-2.046 4.116 5.193 4.116h13.827c4.78 0 6.311-3.413 6.311-3.413l3.972-9.267.364-.829H312.49l2.449-5.583a1.938 1.938 0 0 1 1.62-1.075h2a.7.7 0 0 1 .671 1.075l-1.662 3.788h10.5l1.758-4.01s2.043-4.115-5.197-4.115zm-194.649 0h-18.6l-8.464 19s-2.652 4.434 2.637 4.434h17.344c3.921 0 5.462-3.743 5.462-3.743l3.492-7.973h-10.098l-3.237 7.377a1.932 1.932 0 0 1-1.618 1.075h-2a.7.7 0 0 1-.672-1.075l4.024-9.17h14.379l2.543-5.805s2.043-4.12-5.196-4.12zm-10.939 8.126l1.655-3.789a1.938 1.938 0 0 1 1.619-1.075h2a.7.7 0 0 1 .671 1.075l-1.662 3.788h-4.291zm75.433-8.126h-18.611l-8.463 19s-2.651 4.434 2.637 4.434h17.345c3.92 0 5.461-3.743 5.461-3.743l3.492-7.973h-10.088l-3.237 7.377a1.933 1.933 0 0 1-1.618 1.075h-2a.7.7 0 0 1-.671-1.075l4.025-9.17h14.378l2.543-5.805s2.042-4.12-5.197-4.12zm-10.94 8.126l1.662-3.789a1.936 1.936 0 0 1 1.618-1.075h2a.7.7 0 0 1 .672 1.075l-1.663 3.788h-4.291zm39.42-8.126h-18.61l-10.476 23.43h11.342l8.463-19.092a1.936 1.936 0 0 1 1.62-1.075h2a.7.7 0 0 1 .671 1.075l-2.444 5.515h10.113l2.512-5.737s2.043-4.116-5.195-4.116zM28.8 0a29 29 0 1 0 28.8 29A28.9 28.9 0 0 0 28.8 0zm25.181 22.294l-10.675.006 1.581-3.485c.292-.624.576-1.23.817-1.741l.274-.581a1.345 1.345 0 0 0 .143-1.082 1.134 1.134 0 0 0-1.018-.589c-.188-.018-.673-.01-.673-.01L29.267 14.8a4.6 4.6 0 0 0-4.4 2.35l-.984 2.195v.005l-2.332 5.205h-.032s-2.26 5.029-3.979 8.84a1.123 1.123 0 0 1-.845.518c-.875 0-1.312-.005-1.8 0-.977 0-.594-.684-.594-.684L28.358 2.792c.148 0 .3-.006.445-.006a25.775 25.775 0 0 1 18.41 7.678 26.1 26.1 0 0 1 6.768 11.83zm-43.589-11.83a25.983 25.983 0 0 1 8.381-5.669L3.911 36.725A26.467 26.467 0 0 1 2.767 29a26.133 26.133 0 0 1 7.625-18.536zm0 37.072A26.29 26.29 0 0 1 5.959 41.6c3.19 0 11.116-.015 11.762-.022l1.068-.008h.489a4.605 4.605 0 0 0 4.4-2.352L27 31.809h.034s2.32-5.161 4.046-8.99a1.3 1.3 0 0 1 1.12-.529h1.86a.344.344 0 0 1 .195.474l-8.491 18.885 8.741-.011 4.935-10.681a1.571 1.571 0 0 1 1.194-.85c.062-.012 1.556 0 1.556 0 .653 0 .64.353.5.657L41 34.471l-.24.529-9.143 20.061a26.27 26.27 0 0 1-2.814.152 25.776 25.776 0 0 1-18.411-7.677zm36.82 0a26.186 26.186 0 0 1-5.3 4.125c1.238-2.727 3.632-8 6-13.225l3.336-7.35c.371-.816 1.168-2.569 1.893-4.169a2173.23 2173.23 0 0 0 1.254-2.762A26.68 26.68 0 0 1 54.838 29a26.131 26.131 0 0 1-7.625 18.536z" fill="#fff" fill-rule="evenodd"/></svg>
