<?xml version="1.0" encoding="UTF-8" standalone="no"?>
<svg
   xmlns:dc="http://purl.org/dc/elements/1.1/"
   xmlns:cc="http://creativecommons.org/ns#"
   xmlns:rdf="http://www.w3.org/1999/02/22-rdf-syntax-ns#"
   xmlns:svg="http://www.w3.org/2000/svg"
   xmlns="http://www.w3.org/2000/svg"
   viewBox="0 0 733.79999 211.18533"
   height="211.18533"
   width="733.79999"
   xml:space="preserve"
   id="svg2"
   version="1.1"><metadata
     id="metadata8"><rdf:RDF><cc:Work
         rdf:about=""><dc:format>image/svg+xml</dc:format><dc:type
           rdf:resource="http://purl.org/dc/dcmitype/StillImage" /></cc:Work></rdf:RDF></metadata><defs
     id="defs6"><clipPath
       id="clipPath26"
       clipPathUnits="userSpaceOnUse"><path
         id="path24"
         d="M 0,158.389 H 550.35 V 0 H 0 Z" /></clipPath></defs><g
     transform="matrix(1.3333333,0,0,-1.3333333,0,211.18533)"
     id="g10"><g
       transform="translate(0,158.3892)"
       id="g12"><path
         id="path14"
         style="fill:#db1921;fill-opacity:1;fill-rule:nonzero;stroke:none"
         d="m 0,0 v -154.62 h 370.767 v 9.986 H 9.986 V -9.987 h 530.378 v -144.647 h 9.987 V 0 Z" /></g><g
       transform="translate(421.8003,22.284)"
       id="g16"><path
         id="path18"
         style="fill:#db1921;fill-opacity:1;fill-rule:nonzero;stroke:none"
         d="M 0,0 -4.965,-9.745 -9.931,0 h -5.339 v -22.098 h 5.431 v 10.583 l 3.135,-5.462 h 3.476 l 3.134,5.462 V -22.098 H 5.338 L 5.338,0 Z" /></g><g
       id="g20"><g
         clip-path="url(#clipPath26)"
         id="g22"><g
           transform="translate(441.4423)"
           id="g28"><path
             id="path30"
             style="fill:#db1921;fill-opacity:1;fill-rule:nonzero;stroke:none"
             d="m 0,0 c -4.594,0 -8.349,3.104 -8.349,7.945 v 14.339 h 5.432 V 8.069 C -2.917,6.021 -1.8,4.841 0,4.841 c 1.8,0 2.979,1.18 2.979,3.228 V 22.284 H 8.411 V 7.945 C 8.411,3.104 4.594,0 0,0" /></g><g
           transform="translate(462.1083)"
           id="g32"><path
             id="path34"
             style="fill:#db1921;fill-opacity:1;fill-rule:nonzero;stroke:none"
             d="m 0,0 c -3.383,0 -6.146,0.621 -8.38,2.917 l 3.476,3.477 c 1.148,-1.149 3.166,-1.553 4.935,-1.553 2.142,0 3.165,0.714 3.165,1.987 0,0.527 -0.124,0.962 -0.434,1.303 -0.28,0.28 -0.744,0.497 -1.458,0.59 l -2.67,0.372 c -1.955,0.28 -3.445,0.931 -4.438,1.956 -1.024,1.055 -1.521,2.545 -1.521,4.438 0,4.034 3.042,6.983 8.07,6.983 3.165,0 5.555,-0.745 7.448,-2.638 L 4.779,16.418 c -1.396,1.396 -3.227,1.304 -4.189,1.304 -1.894,0 -2.67,-1.087 -2.67,-2.049 0,-0.279 0.094,-0.683 0.434,-1.024 0.28,-0.279 0.746,-0.559 1.522,-0.652 L 2.545,13.625 C 4.531,13.346 5.959,12.725 6.89,11.793 8.069,10.646 8.535,9 8.535,6.952 8.535,2.452 4.655,0 0,0" /></g><path
           id="path36"
           style="fill:#db1921;fill-opacity:1;fill-rule:nonzero;stroke:none"
           d="m 476.071,22.284 h 5.432 V 0.186 h -5.432 z" /><g
           transform="translate(495.497)"
           id="g38"><path
             id="path40"
             style="fill:#db1921;fill-opacity:1;fill-rule:nonzero;stroke:none"
             d="m 0,0 c -2.576,0 -4.531,0.869 -6.145,2.483 -2.328,2.328 -2.235,5.431 -2.235,8.752 0,3.321 -0.093,6.425 2.235,8.752 1.614,1.614 3.569,2.483 6.145,2.483 4.19,0 7.573,-2.327 8.38,-7.2 H 2.855 c -0.341,1.241 -1.024,2.358 -2.824,2.358 -0.993,0 -1.738,-0.403 -2.141,-0.931 -0.496,-0.652 -0.838,-1.427 -0.838,-5.462 0,-4.035 0.342,-4.811 0.838,-5.463 0.403,-0.527 1.148,-0.931 2.141,-0.931 1.8,0 2.483,1.118 2.824,2.359 H 8.38 C 7.573,2.328 4.19,0 0,0" /></g><g
           transform="translate(138.2299,74.167)"
           id="g42"><path
             id="path44"
             style="fill:#db1921;fill-opacity:1;fill-rule:nonzero;stroke:none"
             d="M 0,0 -5.468,17.82 -10.825,0.038 Z M 3.241,-11.62 H -14.03 l -3.431,-11.21 -15.436,0.074 18.317,60.441 H 3.792 L 22.067,-22.83 H 6.545 Z" /></g><g
           transform="translate(279.4316,50.4946)"
           id="g46"><path
             id="path48"
             style="fill:#db1921;fill-opacity:1;fill-rule:nonzero;stroke:none"
             d="m 0,0 c -15.76,0 -25.875,8.344 -26.97,21.746 h 16.098 c 0.084,-5.732 3.961,-9.356 10.535,-9.356 5.478,0 9.103,2.107 9.103,5.9 0,2.697 -2.614,4.55 -6.154,5.225 l -11.04,2.108 c -9.693,1.853 -16.098,7.5 -16.098,17.276 0,11.294 9.945,19.217 23.514,19.217 14.413,0 24.78,-8.259 25.706,-21.324 H 8.597 c -0.421,5.479 -4.13,9.019 -9.439,9.019 -4.72,0 -7.586,-2.529 -7.586,-5.815 0,-2.782 2.698,-4.299 5.9,-4.889 L 9.188,36.832 C 19.976,34.725 25.706,29.415 25.706,20.649 25.706,8.175 15.761,0 0,0" /></g><g
           transform="translate(346.1396,64.3164)"
           id="g50"><path
             id="path52"
             style="fill:#db1921;fill-opacity:1;fill-rule:nonzero;stroke:none"
             d="m 0,0 c 9.524,0 14.835,7.839 14.835,17.363 0,9.524 -5.311,17.194 -14.835,17.194 -9.524,0 -14.833,-7.67 -14.833,-17.194 C -14.833,7.839 -9.524,0 0,0 m 0,-14.243 c -17.446,0 -31.184,13.232 -31.184,31.606 C -31.184,35.736 -17.446,48.8 0,48.8 17.531,48.8 31.27,35.736 31.27,17.363 31.27,-1.011 17.531,-14.243 0,-14.243" /></g><g
           transform="translate(401.9286,89.0962)"
           id="g54"><path
             id="path56"
             style="fill:#db1921;fill-opacity:1;fill-rule:nonzero;stroke:none"
             d="M 0,0 V -37.759 H -14.581 V 22.756 H 2.528 l 22.335,-34.977 v 34.977 h 14.581 v -60.515 h -15.34 z" /></g><g
           transform="translate(478.6894,50.4946)"
           id="g58"><path
             id="path60"
             style="fill:#db1921;fill-opacity:1;fill-rule:nonzero;stroke:none"
             d="m 0,0 c -15.76,0 -25.874,8.344 -26.97,21.746 h 16.099 c 0.083,-5.732 3.96,-9.356 10.535,-9.356 5.478,0 9.102,2.107 9.102,5.9 0,2.697 -2.614,4.55 -6.153,5.225 l -11.041,2.108 c -9.692,1.853 -16.097,7.5 -16.097,17.276 0,11.294 9.945,19.217 23.514,19.217 14.412,0 24.78,-8.259 25.706,-21.324 H 8.598 c -0.421,5.479 -4.13,9.019 -9.44,9.019 -4.72,0 -7.586,-2.529 -7.586,-5.815 0,-2.782 2.698,-4.299 5.9,-4.889 L 9.188,36.832 C 19.976,34.725 25.706,29.415 25.706,20.649 25.706,8.175 15.762,0 0,0" /></g><g
           transform="translate(231.7363,111.8521)"
           id="g62"><path
             id="path64"
             style="fill:#db1921;fill-opacity:1;fill-rule:nonzero;stroke:none"
             d="M 0,0 -10.893,-36.072 -21.82,0.018 -30.596,0.008 -37.5,0.018 -37.495,0 h -0.122 l 1.509,-5.018 -9.355,-31.054 L -56.355,0 h -15.962 l 18.425,-60.515 h 16.955 l 8.759,29.127 8.76,-29.127 H -2.464 L 15.961,0 Z" /></g><g
           transform="translate(82.9921,74.5679)"
           id="g66"><path
             id="path68"
             style="fill:#db1921;fill-opacity:1;fill-rule:nonzero;stroke:none"
             d="m 0,0 c -1.521,-5.261 -5.297,-8.299 -10.644,-9.128 -2.381,-0.37 -4.665,-0.412 -7.087,-0.412 -1.214,0 -3.79,-0.009 -3.79,-0.009 V 13.46 l -9.573,10.099 c 0,0 10.812,0.016 14.79,0.016 4.179,0 6.788,-0.579 8.253,-1.045 4.398,-1.399 7.06,-4.518 8.21,-8.919 C 1.345,9.077 1.301,4.502 0,0 m 16.609,13.399 c -0.868,5.19 -2.892,9.877 -6.356,13.876 -4.905,5.663 -11.265,8.568 -18.562,9.642 -0.175,0.026 -0.351,0.05 -0.526,0.073 -1.898,0.251 -3.811,0.359 -5.725,0.359 h -22.922 v -60.652 c 0,0 15.894,-0.005 23.69,0.007 3.002,0.004 5.972,0.347 8.868,1.144 9.713,2.671 16.547,8.586 20.087,18.091 2.11,5.667 2.439,11.524 1.446,17.46" /></g></g></g></g></svg>