<?xml version="1.0" encoding="utf-8"?>
<!-- Generator: Adobe Illustrator 21.1.0, SVG Export Plug-In . SVG Version: 6.00 Build 0)  -->
<svg version="1.1" 
id="Laag_1" 
xmlns="http://www.w3.org/2000/svg" 
xmlns:xlink="http://www.w3.org/1999/xlink" 
x="0px" 
y="0px"
   width="400"
   height="90"
 viewBox="0 0 400 89.6" 
 style="enable-background:new 0 0 400 89.6;" 
 xml:space="preserve"
 >
<style type="text/css">
	.st0{fill:url(#path3718_2_);}
	.st1{fill:url(#path3705_2_);}
	.st2{fill:url(#polygon3731_2_);}
	.st3{fill:url(#polygon3744_2_);}
	.st4{fill:url(#polygon3757_2_);}
	.st5{fill:url(#polygon3770_2_);}
	.st6{fill:url(#path3783_2_);}
	.st7{fill:url(#path3796_2_);}
	.st8{fill:url(#rect3809_2_);}
	.st9{fill:url(#path3822_2_);}
</style>
<title>inspiredbykeymusic_logo_zwart</title>
<radialGradient id="path3718_2_" cx="282.9151" cy="326.7565" r="206.492" gradientTransform="matrix(1 0 0 -1 -93.62 390.06)" gradientUnits="userSpaceOnUse">
	<stop  offset="1.000000e-02" style="stop-color:#FF5000"/>
	<stop  offset="0.45" style="stop-color:#FF4E00"/>
	<stop  offset="0.7" style="stop-color:#FF4500"/>
	<stop  offset="0.9" style="stop-color:#FF3700"/>
	<stop  offset="0.92" style="stop-color:#FF3500"/>
</radialGradient>
<path id="path3718_1_" class="st0" d="M394.3,48.2h0.5l0.8,1.3h0.6l-0.9-1.3c0.5,0,0.8-0.3,0.8-0.8c0-0.6-0.4-0.9-1.1-0.9h-1.2v3.1
	h0.5L394.3,48.2L394.3,48.2L394.3,48.2z M394.3,46.8h0.6c0.3,0,0.7,0,0.7,0.4c0,0.5-0.3,0.5-0.7,0.5h-0.5L394.3,46.8L394.3,46.8z"/>
<radialGradient id="path3705_2_" cx="282.9151" cy="326.7565" r="206.492" gradientTransform="matrix(1 0 0 -1 -93.62 390.06)" gradientUnits="userSpaceOnUse">
	<stop  offset="1.000000e-02" style="stop-color:#FF5000"/>
	<stop  offset="0.45" style="stop-color:#FF4E00"/>
	<stop  offset="0.7" style="stop-color:#FF4500"/>
	<stop  offset="0.9" style="stop-color:#FF3700"/>
	<stop  offset="0.92" style="stop-color:#FF3500"/>
</radialGradient>
<path id="path3705_1_" class="st1" d="M394.9,50.6c1.5,0,2.7-1.2,2.7-2.7s-1.2-2.7-2.7-2.7s-2.7,1.2-2.7,2.7l0,0
	c0,1.5,1.1,2.7,2.6,2.7C394.8,50.6,394.8,50.6,394.9,50.6z M394.9,45.8c1.2,0,2.1,1,2.1,2.2c0,1.1-0.9,2-2.1,2.1
	c-1.1,0-2.1-0.9-2.1-2c0,0,0-0.1,0-0.1C392.8,46.8,393.7,45.9,394.9,45.8C394.8,45.8,394.8,45.8,394.9,45.8L394.9,45.8z"/>
<radialGradient id="polygon3731_2_" cx="275.7261" cy="328.8505" r="206.492" gradientTransform="matrix(1 0 0 -1 -84.9 392.6)" gradientUnits="userSpaceOnUse">
	<stop  offset="1.000000e-02" style="stop-color:#FF5000"/>
	<stop  offset="0.45" style="stop-color:#FF4E00"/>
	<stop  offset="0.7" style="stop-color:#FF4500"/>
	<stop  offset="0.9" style="stop-color:#FF3700"/>
	<stop  offset="0.92" style="stop-color:#FF3500"/>
</radialGradient>
<polygon id="polygon3731_1_" class="st2" points="52.8,46.7 32.2,46.7 17.9,60.5 17.9,46.7 2.5,46.7 2.5,85.8 17.9,85.8 17.9,75.3 
	23,70.7 33.7,85.8 54.2,85.8 35.3,61.8 "/>
<radialGradient id="polygon3744_2_" cx="275.7261" cy="328.8505" r="206.492" gradientTransform="matrix(1 0 0 -1 -84.9 392.6)" gradientUnits="userSpaceOnUse">
	<stop  offset="1.000000e-02" style="stop-color:#FF5000"/>
	<stop  offset="0.45" style="stop-color:#FF4E00"/>
	<stop  offset="0.7" style="stop-color:#FF4500"/>
	<stop  offset="0.9" style="stop-color:#FF3700"/>
	<stop  offset="0.92" style="stop-color:#FF3500"/>
</radialGradient>
<polygon id="polygon3744_1_" class="st3" points="72.5,71 96.8,71 96.8,61.5 72.5,61.5 72.5,56.2 98.6,56.2 98.6,46.7 57.1,46.7 
	57.1,85.8 98.6,85.8 98.6,76.2 72.5,76.2 "/>
<radialGradient id="polygon3757_2_" cx="275.7261" cy="328.8505" r="206.492" gradientTransform="matrix(1 0 0 -1 -84.9 392.6)" gradientUnits="userSpaceOnUse">
	<stop  offset="1.000000e-02" style="stop-color:#FF5000"/>
	<stop  offset="0.45" style="stop-color:#FF4E00"/>
	<stop  offset="0.7" style="stop-color:#FF4500"/>
	<stop  offset="0.9" style="stop-color:#FF3700"/>
	<stop  offset="0.92" style="stop-color:#FF3500"/>
</radialGradient>
<polygon id="polygon3757_1_" class="st4" points="101.5,46.7 118.8,74.8 118.8,85.8 134.3,85.8 134.3,74.8 151.6,46.7 134,46.7 
	126.6,62 119.1,46.7 "/>
<radialGradient id="polygon3770_2_" cx="275.7261" cy="328.8505" r="206.492" gradientTransform="matrix(1 0 0 -1 -84.9 392.6)" gradientUnits="userSpaceOnUse">
	<stop  offset="1.000000e-02" style="stop-color:#FF5000"/>
	<stop  offset="0.45" style="stop-color:#FF4E00"/>
	<stop  offset="0.7" style="stop-color:#FF4500"/>
	<stop  offset="0.9" style="stop-color:#FF3700"/>
	<stop  offset="0.92" style="stop-color:#FF3500"/>
</radialGradient>
<polygon id="polygon3770_1_" class="st5" points="176.2,46.7 154.5,46.7 154.5,85.8 168.5,85.8 168.5,57.8 168.6,57.8 176.8,85.8 
	188.6,85.8 196.8,57.8 196.9,57.8 196.9,85.8 210.9,85.8 210.9,46.7 189.2,46.7 182.8,69.4 182.7,69.4 "/>
<radialGradient id="path3783_2_" cx="282.9151" cy="326.7565" r="206.492" gradientTransform="matrix(1 0 0 -1 -93.62 390.06)" gradientUnits="userSpaceOnUse">
	<stop  offset="1.000000e-02" style="stop-color:#FF5000"/>
	<stop  offset="0.45" style="stop-color:#FF4E00"/>
	<stop  offset="0.7" style="stop-color:#FF4500"/>
	<stop  offset="0.9" style="stop-color:#FF3700"/>
	<stop  offset="0.92" style="stop-color:#FF3500"/>
</radialGradient>
<path id="path3783_1_" class="st6" d="M264.4,70.9V46.7H249v23.7c0,5.1-2.9,6.6-7.9,6.6c-5,0-7.9-1.6-7.9-6.6V46.7h-15.5v24.3
	c0,12.4,7.5,16.2,23.4,16.2C256.9,87.2,264.4,83.4,264.4,70.9z"/>
<radialGradient id="path3796_2_" cx="282.9151" cy="326.7565" r="206.492" gradientTransform="matrix(1 0 0 -1 -93.62 390.06)" gradientUnits="userSpaceOnUse">
	<stop  offset="1.000000e-02" style="stop-color:#FF5000"/>
	<stop  offset="0.45" style="stop-color:#FF4E00"/>
	<stop  offset="0.7" style="stop-color:#FF4500"/>
	<stop  offset="0.9" style="stop-color:#FF3700"/>
	<stop  offset="0.92" style="stop-color:#FF3500"/>
</radialGradient>
<path id="path3796_1_" class="st7" d="M306.2,61.7L287.7,59c-1.5-0.2-2-0.9-2-2c0-1.6,1.6-2.8,6.2-2.8c1.7,0,3.5,0.2,4.8,0.8
	c1.4,0.5,2.4,1.5,2.4,3.1H317c-0.5-8.3-7.7-12.8-25.2-12.8c-12.7,0-22.6,2.7-22.6,12.9c0,5.5,3.1,9.8,10.7,11l17.6,2.7
	c2.1,0.3,2.8,1.5,2.8,2.7c0,1.9-1.3,3.2-6.1,3.2c-2.4,0-4.1-0.3-5.2-0.8c-1.1-0.6-1.6-1.5-1.6-2.8h-18.6c0,11.5,13,13.2,24.9,13.2
	c17.4,0,25.2-4.5,25.2-14C318.8,66.5,313.9,62.9,306.2,61.7z"/>
<radialGradient id="rect3809_2_" cx="275.7261" cy="328.8505" r="206.492" gradientTransform="matrix(1 0 0 -1 -84.9 392.6)" gradientUnits="userSpaceOnUse">
	<stop  offset="1.000000e-02" style="stop-color:#FF5000"/>
	<stop  offset="0.45" style="stop-color:#FF4E00"/>
	<stop  offset="0.7" style="stop-color:#FF4500"/>
	<stop  offset="0.9" style="stop-color:#FF3700"/>
	<stop  offset="0.92" style="stop-color:#FF3500"/>
</radialGradient>
<rect id="rect3809_1_" x="324" y="46.7" class="st8" width="15.4" height="39.1"/>
<radialGradient id="path3822_2_" cx="282.9151" cy="326.7565" r="206.492" gradientTransform="matrix(1 0 0 -1 -93.62 390.06)" gradientUnits="userSpaceOnUse">
	<stop  offset="1.000000e-02" style="stop-color:#FF5000"/>
	<stop  offset="0.45" style="stop-color:#FF4E00"/>
	<stop  offset="0.7" style="stop-color:#FF4500"/>
	<stop  offset="0.9" style="stop-color:#FF3700"/>
	<stop  offset="0.92" style="stop-color:#FF3500"/>
</radialGradient>
<path id="path3822_1_" class="st9" d="M371.8,87.2c9.4,0,15.3-1.6,19.1-4.4c3.8-2.8,5.6-7,6.5-12.2h-17.4c-1.3,4.7-4.1,6.8-9,6.8
	c-5.7,0-9.5-3.1-9.5-11.1s4-11.1,10.3-11.1c6,0,7.8,4.1,8.3,6.8h17.4c-2-15.5-16.4-16.7-25.7-16.7c-9.4,0-26.7,0.6-26.7,20.9
	C345.1,86.5,362.5,87.2,371.8,87.2L371.8,87.2z"/>
<g>
	<path d="M75,8.6l-0.4-0.1C74.8,8.3,75,8,75.3,7.9C75.9,7.4,76.5,7,77,6.5c0.6-0.5,1.1-0.8,1.7-1.2c0.2-0.1,0.4-0.3,0.6-0.4
		c0.3-0.3,0.6-0.6,0.9-0.6c0.2,0,0.3-0.1,0.4-0.2c0-0.2,0.3-0.3,0.5-0.4c0-0.4,0.4-0.1,0.5-0.2c0.2-0.1,0.3-0.2,0.5-0.4
		c0.2-0.1,0.2-0.2,0.4-0.2C82.7,3,83,2.8,83.4,2.7c0.4-0.1,0.8-0.3,1.3-0.4l1.1-0.4c0.4,0,0.8,0,1.1-0.1H87c0.4,0.2,0.8,0.3,1.3,0.4
		c0.4,0.2,0.8,0.4,1.1,0.8c0.2,0.4,0.6,0.7,0.8,1.3c0.1,0.2,0.1,0.3,0.2,0.6c0.2,0.5,0.3,1.1,0.2,1.7c-0.1,0.3-0.1,0.7,0.1,0.9
		l-0.1,0.2c-0.1,0.1-0.2,0.3-0.2,0.5c0.1,0.9-0.2,1.6-0.6,2.5c-0.1,0.5-0.2,1-0.5,1.5l-0.2,0.4c-0.2,0.2-0.3,0.4-0.4,0.6
		c-0.1,0.2-0.1,0.4-0.1,0.7v0.1c-0.1,0.3-0.5,0.3-0.4,0.7c-0.1,0.2-0.2,0.5-0.3,0.7c-0.3,0.2-0.4,0.7-0.7,0.9c0,0.1,0,0.1,0.1,0.2
		c0.2,0.2-0.1,0.4-0.1,0.5c0,0.1-0.4,0.1-0.3,0.4c0.1,0.2-0.2,0.2-0.2,0.4c0,0.2-0.1,0.3-0.2,0.4c-0.2,0.2-0.2,0.5-0.4,0.5
		c-0.2-0.1,0,0.3-0.2,0.5c-0.2,0.1-0.2,0.2-0.4,0.4c-0.1,0.1-0.1,0.3-0.1,0.4c0.1,0.1,0.1,0.2-0.1,0.2c-0.2,0.1-0.3,0.1-0.4,0.2
		c-0.1,0.1-0.1,0.2-0.1,0.2c0.1,0.2,0.2,0.6-0.1,0.8c-0.2,0.2-0.2,0.5-0.5,0.6c-0.2,0.1-0.2,0.2-0.2,0.3C84,22.1,84,22.1,84,22.1
		c0,0.1,0.1,0.1,0.2,0.1c-0.2,0.2-0.1,0.3-0.2,0.4c-0.2,0.2-0.6,0.5-0.7,0.9c0,0.2-0.4,0.2-0.2,0.4c0,0.3-0.2,0.2-0.3,0.3
		c-0.2,0.2-0.5,0.4-0.6,0.7c0,0.1,0.1,0.2,0.2,0.2c-0.1,0.1-0.2,0.3-0.3,0.3c0,0.1,0,0.3-0.1,0.4c-0.2,0.1-0.4,0.3-0.5,0.6
		c-0.1,0.1-0.1,0.2,0.1,0.2c-0.2,0.2-0.4,0.5-0.4,0.9c-0.1,0.1-0.2,0.2-0.2,0.2c-0.2,0.1-0.2,0.2-0.2,0.4c-0.3,0.1-0.5,0.4-0.5,0.8
		c-0.2,0.3-0.5,0.5-0.9,0.7c-0.1-0.1-0.1,0.2-0.1,0.2c0,0-0.1,0.1-0.1,0.2c0,0,0.1,0,0.1,0.1c0,0,0,0.1,0,0.1l0,0
		c0,0.2,0,0.2-0.2,0.2h-0.2c-0.1,0.2-0.3,0.4-0.2,0.7c-0.1,0.2-0.1,0.4-0.3,0.5c-0.2,0.1-0.4,0.2-0.5,0.4c-0.1,0.1,0,0.2,0.2,0.3
		c-0.1,0.2-0.1,0.4-0.3,0.4c-0.1,0.1-0.1,0.1-0.1,0c-0.2-0.1-0.2,0-0.2,0.2c0,0.2,0.2,0.5-0.1,0.7c-0.2,0.1-0.2,0.4-0.6,0.4
		c-0.2,0.1-0.1,0.2-0.1,0.2c-0.1,0.1-0.1,0.2-0.2,0.2c-0.5-0.2-0.4,0.2-0.6,0.4c-0.1,0,0.1,0.3,0.1,0.4c-0.2,0.1-0.4,0.1-0.5,0.2
		c-0.2,0.2-0.4,0.5-0.4,0.8c0.2,0.1,0.2,0.2,0.1,0.3c-0.1,0.2-0.2,0.4-0.4,0.2c-0.2,0.2-0.3,0.4-0.4,0.6c0.1,0.2,0.1,0.2-0.1,0.4
		c-0.2,0-0.1,0.2-0.1,0.2c0.1,0.2,0,0.4-0.2,0.5l0,0c-0.3-0.2-0.4,0.1-0.5,0.4l-0.2,0.4c0.1,0.1,0.2,0.1,0.3,0.1v0.2l-0.4,0.2
		l0.1-0.4c-0.2,0.1-0.2,0.2-0.2,0.4h0.2c0,0.1,0,0.4-0.2,0.4v-0.4c-0.2,0.2-0.2,0.2,0,0.4c-0.2,0.2-0.2,0.7-0.8,0.8
		c-0.2,0-0.2,0.2-0.3,0.3l-0.7,1.1c0.1,0,0.1,0,0.2,0.1L71.5,42c0-0.1-0.1-0.1-0.1-0.2c-0.2,0.1-0.3,0.4-0.4,0.6
		c-0.4,0.6-0.7,1.1-1.2,1.6c-0.2,0.2-0.2,0.4-0.2,0.7c0.1,0.2-0.1,0.4-0.4,0.4c0,0.1-0.1,0.2-0.1,0.2c-0.2,0.4-0.4,0.5-0.6,0.7
		c-0.3,0.2-0.4,0.1-0.6-0.1c-0.2-0.3-0.5-0.5-0.5-0.8c0-0.1-0.2-0.2-0.1-0.2c0-0.1-0.2-0.2-0.2-0.2l0.1-1c0.2-0.2,0.3-0.8,0.8-0.8
		c0.1,0,0.2-0.1,0.2-0.2l1.6-2.1c0.7-1,1.2-2,2-3c0.5-0.8,1-1.7,1.6-2.4c0.2-0.8,1-1.3,1.2-2.1c0.5-0.5,0.7-1.2,1-1.6v-0.1
		c0.1-0.1,0.2-0.2,0.2-0.4c0.1-0.1,0-0.1,0-0.2l0.1-0.1c0.2-0.1,0.2,0.1,0.2-0.2l-0.1,0.1c0.1-0.1,0.1-0.2,0.2-0.4
		c0.5-0.6,1.1-1.4,1.5-2.1c0.1-0.1,0.1-0.2-0.1-0.2h-0.2c0.1-0.2,0.2-0.4,0.4-0.5c0.1-0.2,0.4-0.2,0.6-0.4c0.2-0.2,0.2-0.5,0.2-0.6
		c0.8-1.2,1.5-2.4,2.2-3.6c0.3-0.5,0.6-0.9,0.8-1.4c0.5-0.7,0.9-1.5,1.3-2.2c0.7-1.1,1.4-2.3,1.9-3.5c0-0.2,0.1-0.4,0.2-0.5
		c0.1-0.3,0.4-0.6,0.4-1c0-0.1,0.2-0.2,0.2-0.3c0.4-0.5,0.6-1,0.8-1.5c0.2-0.4,0.5-0.9,0.6-1.4c0-0.1,0-0.1,0.1-0.2
		c0.2-0.3,0.4-0.6,0.5-1c0-0.3,0.4-0.6,0.3-1c0-0.2,0.1-0.2,0.1-0.4c0.3-0.8,0.7-1.6,0.7-2.5c-0.1-0.1,0.1-0.1,0.2-0.2
		C89,6,89,5.8,89,5.7c-0.1-0.2-0.1-0.4-0.1-0.7C88.9,4.8,89,4.6,89,4.3c0-0.5-0.4-0.9-0.9-1c0,0,0,0,0,0h-0.4
		c-0.3,0.1-0.7,0.1-1.1,0.2c-0.4,0.1-0.8,0.2-1.2,0.2l-0.2-0.1c-0.6,0.5-1.4,0.6-2,1c-0.5,0.3-0.9,0.6-1.4,0.8
		c-0.7,0.4-1.3,0.9-1.9,1.3c-2,1.3-3.7,3-5.6,4.5c-0.2,0.2-0.4,0.4-0.6,0.7l-0.5,0.5c-0.7,0.5-1.3,1.1-1.9,1.7
		c-0.2,0.2-0.5,0.5-0.6,0.8c-0.6,0.8-1.2,1.6-1.7,2.4c-0.2,0.2-0.4,0.5-0.6,0.7l-0.1,0.6c0.2,0.2,0.3,0.5,0.6,0.5
		c0.8,0.1,1.4,0.2,2.2,0.1c0.4,0,0.8,0,1.2-0.1c0.1-0.1,0.2,0,0.2,0c0,0.1,0,0.2-0.1,0.2c-0.1,0.2-0.1,0.2-0.3,0.4
		c-0.3,0.1-0.6,0.3-0.9,0.5c-0.1,0-0.1,0.1-0.2,0.1c-0.3-0.1-0.7,0.1-1.1,0.1c-0.6,0.1-1.2-0.2-1.7-0.6l-0.4-0.5
		c-0.4-0.8-0.4-1.7-0.2-2.5c0.4-0.7,0.6-1.4,1.1-2l0.7-0.8c0.2-0.1,0.3-0.3,0.3-0.5c0.2-0.3,0.4-0.5,0.7-0.8
		c0.3-0.3,0.6-0.5,0.8-0.9c0.3-0.4,0.6-0.5,0.8-0.8c0.4-0.4,0.7-0.5,0.9-0.9c0-0.1,0.1-0.2,0.2-0.2c0.4-0.2,0.4-0.5,0.7-0.5
		c0.1-0.4,0.5-0.2,0.6-0.6c0-0.1,0.2-0.1,0.3-0.1v0.4C74.9,9,75,8.9,75,8.6z M68.9,43.3c-0.4,0-0.4,0.5-0.7,0.8v0.2
		c0.1,0,0.2,0,0.2-0.1C68.6,44,68.8,43.7,68.9,43.3z M71.9,39c-0.1,0.1-0.3,0.1-0.3,0.2c-0.5,0.8-1.1,1.4-1.5,2.2
		c-0.2,0.4-0.3,0.6-0.7,0.8c-0.3,0.4-0.6,0.7-0.6,1.2c0.5-0.4,0.9-0.9,1.3-1.5c0.5-0.7,0.8-1.4,1.4-2.1C71.8,39.5,71.9,39.3,71.9,39
		L71.9,39z M69.5,43.6c-0.1,0-0.1,0-0.1-0.1l0,0c0,0.1-0.1,0.1-0.1,0.1l0.1,0.1C69.4,43.7,69.5,43.7,69.5,43.6z M69.9,43.1
		c-0.1,0-0.2,0.1-0.2,0.1c-0.1-0.1,0,0.1,0.1,0.2l0.1-0.1V43.1z M70,42.9c0,0.1,0,0.1-0.1,0.2C70,43,70.2,43,70,42.9L70,42.9z
		 M70.4,42.5c-0.1-0.1-0.2-0.1-0.1,0.1C70.3,42.5,70.3,42.5,70.4,42.5L70.4,42.5z M70.5,42.2c0,0-0.1,0-0.1,0.1v0.2
		c0.1,0,0.1-0.1,0.2-0.2C70.6,42.3,70.6,42.2,70.5,42.2L70.5,42.2z M70.7,41.6c-0.1,0.1-0.1,0.1-0.1,0.2
		C70.8,41.8,70.8,41.8,70.7,41.6L70.7,41.6z M71.1,41.4c-0.2-0.1-0.2,0.1-0.2,0.2C71.1,41.6,71.1,41.5,71.1,41.4L71.1,41.4z
		 M71.3,41c-0.2,0-0.2,0.2-0.2,0.3h0.2L71.3,41z M71.4,41.5c0-0.1-0.1-0.1-0.2-0.1C71.3,41.4,71.2,41.5,71.4,41.5L71.4,41.5z
		 M71.7,40.4c-0.2,0-0.3,0.1-0.4,0.2c-0.1,0.1-0.1,0.2-0.1,0.3c0.1-0.1,0.2-0.1,0.4-0.2C71.7,40.7,71.8,40.4,71.7,40.4L71.7,40.4z
		 M71.9,40.1L71.8,40v0.1H71.9z M76,32.9c0.3-0.2,0.5-0.7,0.7-0.9c0.2-0.2,0.2-0.7,0.5-0.9c0.2-0.2,0.4-0.6,0.6-0.9l0.5-1
		c-0.2,0.1-1,0.9-1.2,1.1c-0.2,0.1-0.2,0.5-0.2,0.6c-0.3,0.4-0.6,0.9-0.9,1.3c-0.2,0.5-0.4,1-0.9,1.3c-0.2,0.4-0.4,0.9-0.6,1.4
		l-0.3,0.4L73.5,36c-0.2,0.3-0.3,0.7-0.6,0.8c-0.2,0.3-0.2,0.7-0.5,0.9L72,38.5c-0.1,0.2-0.1,0.3-0.1,0.5c0.1-0.1,0.2-0.1,0.2-0.2
		c0.3-0.3,0.6-0.7,0.8-1.1c0.6-0.9,1.3-1.7,1.8-2.7c0.1-0.2,0.2-0.3,0.4-0.2c0,0.1,0,0.2-0.1,0.4c0,0.2-0.1,0.2-0.1,0.4
		c0.5,0,0.5,0,0.5-0.5v-0.2H75c0-0.2,0.1-0.4,0.2-0.6c0.2-0.2,0.2-0.6,0.3-0.7C75.8,33.4,75.7,33,76,32.9L76,32.9z M72.6,38.8
		c-0.3,0.1-0.4,0.5-0.5,0.6c-0.1,0,0,0.2,0,0.2s0.2,0,0.2-0.1C72.6,39.3,72.8,39.2,72.6,38.8L72.6,38.8z M72.4,11.2L72.4,11.2h-0.1
		H72.4z M72.9,10.6c-0.1,0.1-0.2,0-0.2,0.2L72.9,10.6z M72.9,38.5c-0.2,0-0.2,0.2-0.2,0.4C72.9,38.8,72.9,38.6,72.9,38.5L72.9,38.5z
		 M73,10.5c-0.1,0.1-0.1,0-0.1,0.1C73,10.6,73,10.6,73,10.5L73,10.5z M73.5,37.8c0-0.1-0.1-0.1-0.2,0c-0.2,0.2-0.4,0.3-0.4,0.6
		c0.3-0.1,0.4-0.2,0.6-0.5C73.6,38,73.5,37.9,73.5,37.8L73.5,37.8z M73.4,10.1c-0.3,0-0.2,0.2-0.2,0.4
		C73.3,10.4,73.4,10.3,73.4,10.1z M73.7,9.8c-0.2,0-0.3,0.1-0.4,0.4C73.7,10.1,73.7,10.1,73.7,9.8L73.7,9.8z M73.8,37.2l-0.2,0.1
		c0,0.1,0.1,0.1,0.1,0.2c0.1,0,0.1,0,0.1-0.1C73.8,37.3,73.8,37.2,73.8,37.2z M73.9,9.5c-0.1,0-0.1,0.1-0.2,0.2
		C73.9,9.8,73.9,9.7,73.9,9.5L73.9,9.5z M74.3,36.8c0-0.2-0.2-0.2-0.3,0c-0.1,0.1-0.2,0.2-0.2,0.4c0.1-0.1,0.2-0.2,0.3-0.2
		C74.3,36.9,74.3,36.8,74.3,36.8L74.3,36.8z M74.2,9.4C74.1,9.4,74,9.4,74,9.5C74.1,9.5,74.2,9.5,74.2,9.4L74.2,9.4z M74.2,38.4
		l0.1,0.1l-0.1,0.1c-0.1,0-0.1-0.1-0.1-0.1l0,0C74,38.4,74.1,38.4,74.2,38.4L74.2,38.4z M74.5,9.2c-0.2,0.1-0.2,0.1-0.2,0.2
		C74.3,9.4,74.4,9.3,74.5,9.2L74.5,9.2z M74.5,36c-0.2,0.1-0.2,0.2-0.2,0.3c-0.1,0.1,0.1,0.1,0.1,0.1c0,0,0.1,0,0.1-0.1V36z M74.7,9
		c-0.2,0.1-0.2,0.2-0.2,0.2C74.6,9.2,74.6,9.1,74.7,9L74.7,9z M74.8,35.6c-0.2,0-0.3,0.2-0.3,0.4C74.8,36,74.8,35.8,74.8,35.6
		L74.8,35.6z M75.3,8.5c-0.1,0-0.2,0.1-0.2,0.2C75.2,8.6,75.3,8.6,75.3,8.5L75.3,8.5z M75.3,36c-0.1,0.1-0.2,0.1-0.1,0.2
		C75.3,36.1,75.3,36.1,75.3,36L75.3,36z M75.5,34.4c-0.2,0.1-0.2,0.2-0.2,0.4C75.5,34.8,75.4,34.7,75.5,34.4L75.5,34.4z M75.5,8.3
		c-0.1-0.1-0.1,0.1-0.2,0.2C75.4,8.5,75.5,8.4,75.5,8.3C75.5,8.3,75.5,8.3,75.5,8.3L75.5,8.3z M76.8,7.4l-0.2-0.1
		c-0.4,0.4-0.8,0.5-1.1,0.9c0.1,0,0.2,0,0.3-0.1C76.1,8,76.5,7.8,76.8,7.4L76.8,7.4z M75.7,34.1c-0.2-0.1-0.2,0.2-0.2,0.3
		C75.7,34.5,75.6,34.3,75.7,34.1L75.7,34.1z M75.8,34.1L75.8,34c-0.1,0-0.1,0.1-0.1,0.1H75.8z M76.1,33.3c-0.2,0.2-0.2,0.2-0.1,0.4
		L76.1,33.3z M76.6,32.8c-0.2,0.1-0.5,0.2-0.5,0.5c0.5,0,0.5,0,0.5-0.2V32.8z M76.3,33.9l-0.1-0.1C76.2,33.9,76.2,34,76.3,33.9
		L76.3,33.9z M77.2,32.3c-0.1-0.1-0.1-0.2-0.1-0.2c-0.3,0.1-0.4,0.4-0.5,0.7l0.4-0.2C77.2,32.5,77.2,32.4,77.2,32.3L77.2,32.3z
		 M77,7.2c-0.1,0-0.2,0.1-0.2,0.2C76.9,7.4,76.9,7.3,77,7.2L77,7.2z M77.2,33.4c0-0.1,0-0.1-0.1-0.1L77,33.4L77.2,33.4z M77.1,7
		l-0.1,0.2C77.1,7.2,77.2,7.2,77.1,7z M77.6,31.7v-0.2c-0.4,0-0.5,0.2-0.5,0.5l0.4-0.2C77.7,31.8,77.6,31.7,77.6,31.7L77.6,31.7z
		 M77.8,6.4c-0.1,0.1-0.2,0.1-0.3,0.2v0.1c0,0,0.1,0.1,0.2,0C77.8,6.6,77.8,6.5,77.8,6.4L77.8,6.4z M78,31c0.1-0.1,0-0.2-0.1-0.4
		c-0.3,0.2-0.5,0.5-0.4,0.8C77.8,31.4,77.8,31,78,31L78,31z M81.6,23.6l-0.4,0.2L80.6,25c-0.3,0.5-0.6,0.7-0.8,1.1
		c-0.1,0.4-0.3,0.7-0.7,0.9c-0.1,0-1.4,2.5-1.4,2.5l0.6-0.4c0.2-0.5,1.8-2.9,2.1-3.4c0.3-0.6,0.6-1.2,1-1.7
		C81.5,23.9,81.5,23.7,81.6,23.6L81.6,23.6z M78.1,6.4c-0.2,0-0.2,0.1-0.2,0.1C78,6.5,78,6.4,78.1,6.4z M78.9,29.4c0,0,0-0.1,0-0.1
		c0,0-0.1,0-0.1,0.1c-0.2,0.2-0.4,0.5-0.7,0.8c-0.1,0.2-0.2,0.4-0.2,0.6c0.5-0.2,0.6-0.6,0.9-1C78.9,29.6,78.9,29.5,78.9,29.4
		L78.9,29.4z M78.2,32c0,0-0.1,0.1-0.2,0.1c0.1-0.1,0.1-0.1,0.1-0.2C78.2,32,78.2,32,78.2,32L78.2,32z M78.2,6.1
		c-0.1,0-0.1,0.1-0.1,0.1C78.2,6.3,78.2,6.2,78.2,6.1L78.2,6.1z M78.6,5.9l-0.1-0.1l-0.2,0.2c0.1,0,0.2,0,0.4-0.1V5.9z M78.9,27.9
		c0.1,0,0.1-0.1,0.1-0.2C79,27.8,78.8,27.8,78.9,27.9L78.9,27.9z M79.2,5.6c-0.1,0-0.2,0-0.1,0.2C79.1,5.7,79.1,5.6,79.2,5.6
		L79.2,5.6z M79.1,27.6c0,0.1,0,0.1-0.1,0.2C79.1,27.8,79.2,27.8,79.1,27.6L79.1,27.6z M79.4,5.4c-0.2,0-0.2,0-0.2,0.2
		C79.2,5.6,79.4,5.5,79.4,5.4L79.4,5.4z M79.2,29.9L79.2,29.9l0.1,0.1L79.2,29.9z M79.2,29.9l0.1-0.1c0,0,0,0.1,0.1,0.1H79.2z
		 M80.1,4.9c-0.3,0-0.6,0.2-0.8,0.5C79.7,5.4,80,5.2,80.1,4.9L80.1,4.9z M80.1,27.4c-0.1,0-0.1-0.1-0.1-0.2c-0.1,0-0.1,0.1-0.1,0.1
		c0,0,0,0.1,0.1,0.1l0,0C80,27.4,80,27.4,80.1,27.4L80.1,27.4z M80.8,4.6c-0.3,0-0.6,0.1-0.7,0.4C80.5,5,80.7,4.8,80.8,4.6L80.8,4.6
		z M80.8,26.3l-0.2-0.2c-0.2,0.2-0.3,0.2-0.3,0.5c0,0.1,0.1,0.1,0.1,0.2v-0.1c0.1-0.2,0.2-0.2,0.4-0.3
		C80.8,26.4,80.8,26.3,80.8,26.3L80.8,26.3z M81,4.4c-0.1-0.1-0.2,0.1-0.2,0.2C81,4.5,81,4.5,81,4.4L81,4.4z M81.3,25.5
		c0-0.1,0-0.1-0.1-0.2h-0.1c-0.2,0.1-0.2,0.4-0.3,0.5h0.2L81.3,25.5z M81.2,4.2c-0.2,0-0.2,0.1-0.2,0.2C81.1,4.3,81.2,4.3,81.2,4.2
		L81.2,4.2z M81.6,4c-0.2,0.1-0.2,0-0.4,0.2C81.4,4.2,81.5,4.2,81.6,4L81.6,4z M82,24.1c-0.4,0.2-0.2,0.6-0.5,0.7
		c0,0.1,0,0.1,0.1,0.2c0,0,0,0.1,0.1,0.1c0.2,0,0.2-0.2,0.2-0.2L82,24.1z M82.6,21.9c-0.3,0.2-0.4,0.6-0.6,0.8
		c-0.4,0.2-0.4,0.7-0.5,1c0.4-0.3,0.5-0.7,0.8-1.2c0.1-0.1,0.1-0.2,0.2-0.4L82.6,21.9L82.6,21.9z M81.8,3.8C81.7,4,81.7,4,81.7,4
		C81.8,4,81.9,4,81.8,3.8L81.8,3.8z M82,25.5c-0.1-0.1,0-0.2-0.2-0.1C81.9,25.4,82,25.4,82,25.5L82,25.5z M82.4,23.4
		c-0.3,0.1-0.4,0.3-0.5,0.6C82.2,24,82.4,23.7,82.4,23.4L82.4,23.4z M82.2,3.7c-0.1,0-0.1,0-0.1,0.1l0.1,0.1V3.7z M82.9,3.3
		c-0.2,0-0.5,0.1-0.6,0.3C82.5,3.7,82.8,3.6,82.9,3.3C82.9,3.3,82.9,3.3,82.9,3.3z M82.5,23.3l-0.1,0.1
		C82.4,23.4,82.6,23.4,82.5,23.3L82.5,23.3z M82.6,21.8c0-0.1,0-0.1,0.1-0.1v-0.1C82.6,21.8,82.6,21.8,82.6,21.8L82.6,21.8z
		 M82.8,22.6L82.8,22.6c-0.1,0.1-0.1,0.1-0.2,0.2c-0.1,0.1,0.1,0.1,0.1,0.2C82.7,22.8,82.8,22.7,82.8,22.6L82.8,22.6z M82.9,21.2
		c-0.2,0-0.2,0.1-0.2,0.2c0,0,0.1,0,0.1,0.1c0,0,0-0.1,0.1-0.1l0,0V21.2z M83.3,3.1c-0.1,0-0.4-0.1-0.4,0.2
		C83.1,3.4,83.3,3.4,83.3,3.1L83.3,3.1z M83.2,20.7c-0.2,0.1-0.1,0.2-0.2,0.5C83.2,21.1,83.2,20.8,83.2,20.7z M83.4,20.3
		c-0.2,0-0.2,0.2-0.2,0.4C83.4,20.7,83.4,20.6,83.4,20.3L83.4,20.3z M83.5,3c-0.1-0.1-0.2,0-0.2,0.1C83.4,3.1,83.5,3.1,83.5,3
		L83.5,3z M83.5,21.6c0,0-0.2,0,0,0.1V21.6z M83.7,20c-0.2,0-0.1,0.2-0.2,0.4C83.7,20.3,83.7,20.2,83.7,20L83.7,20z M83.9,2.9
		c0-0.1,0-0.1-0.1-0.1c-0.1-0.1-0.2,0-0.3,0.2h0.2L83.9,2.9z M84,21.5c-0.1,0-0.1-0.1-0.2-0.2c-0.1,0.1-0.2,0.2-0.2,0.2H84z
		 M83.7,19.9c0.2,0,0.2-0.1,0.2-0.2v-0.1c-0.1,0-0.1,0-0.1,0.1C83.7,19.8,83.7,19.9,83.7,19.9z M83.7,21c0,0.1,0,0.1,0.1,0.1
		L83.7,21L83.7,21z M84.4,20.4c-0.1,0-0.1-0.1-0.2-0.1c0,0-0.1-0.1-0.1,0c-0.2,0.1-0.2,0.2-0.2,0.4l0.1,0.1l0.3-0.2L84.4,20.4z
		 M84.2,22.2v-0.2c0,0.1,0.1,0.1,0.2,0.1C84.2,22.2,84.2,22.2,84.2,22.2L84.2,22.2z M84.3,2.8c0,0,0-0.1-0.1-0.1v0.1
		C84.2,2.8,84.2,2.8,84.3,2.8L84.3,2.8z M84.3,18.9L84.3,18.9L84.3,18.9L84.3,18.9z M84.6,18.5h-0.1v0.1L84.6,18.5z M84.6,19.8
		L84.6,19.8v0.1V19.8z M84.9,19.1C84.8,19.1,84.8,19.2,84.9,19.1L84.9,19.1C84.8,19.2,84.8,19.3,84.9,19.1
		C85,19.2,85,19.1,84.9,19.1L84.9,19.1z M85.2,18.5c-0.1,0-0.2,0-0.1,0.2L85.2,18.5z M85.3,18.2c-0.1,0-0.1,0-0.1,0.1
		c0,0-0.1,0.1-0.1,0.1c0.1,0.1,0.2,0,0.2-0.1L85.3,18.2z M85.6,17.9L85.6,17.9C85.5,17.8,85.5,17.8,85.6,17.9
		C85.5,17.9,85.6,17.9,85.6,17.9L85.6,17.9z M86.1,16.9l-0.1-0.1L86.1,16.9c-0.2,0-0.1,0.1-0.1,0.1C86.1,16.9,86.1,16.9,86.1,16.9
		L86.1,16.9z M88.1,12c0-0.1,0-0.1-0.1-0.2c0,0.1-0.1,0.1-0.1,0.2v0.1c-0.1,0.1,0,0.1,0,0.2c0-0.1,0.1-0.1,0.2-0.2V12z M88.5,10.7
		c-0.3,0.2-0.2,0.4-0.2,0.7c0,0,0.1,0,0.1,0.1c0-0.1,0.1-0.1,0.1-0.1L88.5,10.7z M88.7,10.3c0,0-0.1,0-0.1-0.1
		c0,0.1-0.1,0.1-0.1,0.1l-0.1,0.5C88.8,10.7,88.7,10.5,88.7,10.3z M89.5,7L89.5,7L89.5,7l-0.1,0.1C89.5,7.1,89.5,7,89.5,7L89.5,7z"
		/>
	<path d="M121.7,28.8c-1,0.4-2,0.7-3.1,1.1c-0.3,0.2-0.7,0.3-1,0.3c-0.4,0-0.5,0.1-0.4,0.5c-0.1,0-0.2,0.1-0.3,0.2l-5.5,2.2
		c-1.5,0.6-3.1,1.2-4.5,1.6c-0.7,0.4-1.5,0.7-2.2,0.9c-0.8,0.3-1.7,0.3-2.5,0.2c-0.2-0.2-0.6-0.4-0.9-0.5c-0.3-0.3-0.6-0.6-0.9-1
		c-0.2-0.3-0.3-0.6-0.3-1c-0.1-1.7,0-3.4,0.6-5c0.2-0.5,0.4-1,0.5-1.5c0.1-0.4,0.2-0.7,0.2-1.1c0-0.4-0.1-0.4-0.3-0.2
		c-1.2,0.4-2.4,0.9-3.5,1.3c-0.7,0.3-1.1,0.7-1.7,1c-0.8,0.6-1.7,1.1-2.5,1.7c-0.3,0.3-1,0.3-1.3,0.8c-1.7,1-3.1,2.4-4.5,3.7
		c-0.2,0.2-0.5,0.5-0.7,0.7c-0.5,0.7-1.2,1.3-1.9,1.7c-0.2,0.2-0.3,0.4-0.5,0.6c-0.3,0.1-0.5,0-0.8-0.2c-0.4-0.7-0.9-1.5-0.4-2.4
		c0.2-0.5,0.4-1,0.6-1.4c0.2-0.6,0.6-1.1,0.8-1.7c0.1-0.3,0.2-0.5,0.4-0.7c1.1-1.7,2-3.6,2.6-5.6c0.2-0.6,0.6-0.7,1.1-0.6
		c0.5,0.3,1,0.6,1.4,1.1c0.2,0.2,0.1,0.3,0,0.4c-0.4,0.5-0.8,1-0.8,1.7c-0.2,0.2-0.3,0.4-0.4,0.7c-0.6,1.1-1.3,2.1-1.7,3.2
		c-0.1,0.2-0.3,0.5-0.3,0.7c0.1,0,0.2,0,0.3-0.1c1-0.7,1.9-1.3,2.9-2.1c1.1-0.9,1.9-1.7,3.2-2.4c0.6-0.6,1.4-0.8,2.1-1.2
		c0.7-0.6,1.4-0.9,2.2-1.4c0.6-0.2,1-0.5,1.5-0.8c0.4-0.3,1-0.5,1.5-0.7c0.5-0.3,1-0.2,1.4-0.2c0.1,0.1,0.3,0.1,0.4,0.2
		c0.2,0.4,0.7,0.8,0.9,1.2c0.1,0.2,0.1,0.4,0,0.7c-0.2,1.2-0.6,2.5-0.9,3.7c-0.2,0.9-0.4,1.9-0.6,2.8c-0.2,0.3-0.3,0.6-0.2,1
		c-0.1,0.6,0.2,0.7,0.9,0.6c1.4-0.1,2.7-0.5,3.9-0.8c0.9-0.6,2.1-0.8,3-1.2c0.9-0.4,1.6-0.8,2.6-1.1c1.2-0.4,2.5-1,3.6-1.3
		c1.1-0.5,2.1-0.8,3.3-1.3c0.9-0.5,1.9-0.7,2.9-1.2c0.3-0.2,0.9-0.1,1.3-0.2c0.1,0,0.1,0,0.2,0.1c0,0,0,0,0,0
		C123.2,27.5,123.8,28,121.7,28.8z M106.3,33.7h-0.6l-0.1,0.1c0.1,0,0.1,0.2,0.2,0.2C106.1,34,106.3,33.8,106.3,33.7z M107,33.5
		c-0.1,0-0.6-0.2-0.7,0.2h0.4C106.9,33.6,107,33.6,107,33.5L107,33.5z M111.5,31.8c-0.1,0-0.2-0.1-0.4-0.1s-0.2,0.1-0.4,0.3
		C111.1,32.2,111.4,32.2,111.5,31.8z M112.9,31.4c-0.4-0.1-0.9,0-1.2,0.3v0.1C112,31.8,112.6,31.8,112.9,31.4L112.9,31.4z M113.6,31
		h-0.4c-0.2,0-0.4,0.2-0.4,0.4C113.2,31.4,113.5,31.4,113.6,31L113.6,31z M122.2,28c-0.1-0.1-0.2-0.2-0.2-0.1
		c-0.6,0.1-1.2,0.2-1.7,0.5c-0.1,0.1-0.2,0.2-0.4,0.2c-0.7-0.2-1.2,0.2-1.8,0.5c-0.2,0,0,0.5-0.5,0.5c-0.2,0-0.4,0.1-0.5,0.2
		c-0.2,0.1-0.5,0.2-0.7,0.2c-0.8,0.3-1.6,0.5-2.4,0.8c-0.2,0.1-0.4,0.2-0.4,0.3c0.4,0.2,0.7,0,1-0.1c1.3-0.4,2.5-1.1,3.8-1.3
		c0.1-0.1,0.2-0.1,0.3-0.2c0.2-0.4,0.8-0.2,1-0.5c1-0.2,1.6-0.6,2.3-1C122.2,28.1,122.2,28,122.2,28z"/>
	<path d="M139.2,29.5c-0.2,0-0.6-0.1-0.8,0.2h0.2c0,0.1-0.1,0.1-0.1,0.1h0.3V30c-0.3,0.2-0.7,0.5-1,0.6c-0.5,0.2-1,0.5-1.4,0.8
		c-0.2,0-0.3,0-0.5,0.1c-0.7,0.4-1.5,0.8-2.2,1.2c-0.5,0-0.1,0.5-0.5,0.5c-0.2,0.2-0.5,0.3-0.8,0.5c-0.6,0.5-1.3,0.9-1.9,1.3
		c-0.6,0-0.9,0.4-1.3,0.7c-0.5,0.2-0.6,0.5-0.6,0.9c0,0.4,0.1,0.9,0.2,1.3c0.2,0.9,0,1.7-0.3,2.5c-0.4,1.3-0.9,1.7-1.9,2.7
		c-0.7,0.7-1.4,1.2-2.1,1.8c-0.3,0.4-0.8,0.6-1.2,0.7c-0.5,0.2-0.9,0.2-1.3,0.3c-0.8,0.7-1.5,0.4-2.4,0c-0.6-0.3-1.2-0.5-1.7-0.8
		c-0.6-0.2-1.1-0.6-1.2-1.3c-0.2-0.7-0.3-1.4,0.1-2.1c0.1-0.2,0.2-0.2,0.3-0.5c1-1,2.2-1.8,3.4-2.5c0.5-0.4,1.1-0.8,1.7-1.2
		c1.3-0.8,2.6-1.7,4-2.5c0.2-0.2,0.4-0.4,0.1-0.7c-0.2-0.7-0.8-1.2-1.1-1.9c-0.7-1.1-1.3-2.4-2-3.5c-0.5-0.7-0.5-1.4-0.5-2.1
		c-0.1-0.6,0.1-1.1,0.5-1.5c0.5-0.5,1-0.8,1.6-1c0.9-0.1,1.8-0.4,2.7-0.2c1.3,0.1,2.1,0.7,2.9,1.5c0.2,0.2,0.2,0.5,0.1,0.7
		c0,0-0.1,0.1-0.1,0.1c-0.7,0.4-1.5,0.2-2.1-0.3c-0.2-0.2-0.2-0.2-0.2,0c-0.2,0.6-0.4,0.7-0.8,0.5c-0.5-0.3-0.9-0.1-1.3,0.1
		c-0.4,0.2-0.7,0.4-1,0.8c-0.4,0.2-0.6,0.6-0.4,1.1c0.1,0.8,0.5,1.5,0.9,2.2c0.7,1,1.3,1.9,1.7,2.9c0.2,0.5,0.4,0.5,0.9,0.2
		c1.4-0.9,2.8-1.7,4.4-2.4c0.1-0.1,0.3-0.2,0.5-0.2c-0.1,0.2-0.2,0.3-0.2,0.4c0.5,0.1,0.8-0.2,1.2-0.4c0.1,0,0.2-0.1,0.2-0.2
		c-0.2,0-0.4-0.2-0.4,0c-0.2,0.1-0.5,0.1-0.8,0.2c0.1-0.2,0.2-0.4,0.3-0.4c1.5-0.6,3-1.3,4.5-2.1h0.5v0.4c-0.2,0.1-0.5,0-0.5,0.2
		c0.2,0,0.5-0.1,0.6-0.2c0.1-0.2,0.1-0.2,0-0.4c0-0.1,0.1-0.1,0.1-0.2c0.8-0.4,1.7-0.6,2.6-0.9c0.6-0.1,0.5-0.1,1.1,0.4
		c0.2,0.2,0.4,0.2,0.2,0.5l-0.4,0.2c-0.3,0.1-0.5,0.2-0.8,0.2c-0.5,0.2-0.7,0.2-0.9-0.1c-0.2-0.2-0.4,0-0.4,0.2h-0.1
		c-0.2,0-0.4,0-0.5,0.2h0.5C139.5,29.8,139.3,29.8,139.2,29.5z M127,36.8c-0.8,0.4-1.6,0.9-2.4,1.5c-1,0.9-2.2,1.7-3.4,2.4
		c-1,0.5-1.8,1.2-2.5,2c-0.1,0.1-0.2,0.2-0.2,0.4c-0.1,0.1,0,0.2,0.2,0.2c0.3,0.2,0.8,0.2,1.2,0.4c0.5,0.2,1.1,0.2,1.7,0
		c0.2,0,0.5-0.2,0.7-0.2c1-0.2,1.8-0.5,2.5-1.3c0.2-0.2,0.5-0.4,0.7-0.6C126.8,40.2,127.5,38.8,127,36.8z M125.9,35.8l0.1,0.1
		c0.2-0.1,0.4-0.2,0.5-0.3c0,0,0-0.1-0.1-0.1C126.2,35.5,126,35.6,125.9,35.8L125.9,35.8z M129,34c-0.3-0.1-0.7,0.1-0.8,0.5
		c0,0,0,0,0,0.1C128.5,34.5,128.9,34.3,129,34L129,34z M130.3,33.1c-0.6,0.2-1,0.3-1.2,0.8C129.5,33.9,130,33.6,130.3,33.1
		L130.3,33.1z M131.8,32.9h-0.5v-0.2c-0.5,0-0.8,0.1-1,0.5h0.8l0.2-0.3v0.3C131.5,33.1,131.8,33.1,131.8,32.9L131.8,32.9z
		 M132.9,32.3h-0.4c-0.1,0.3-0.4,0.3-0.6,0.3c0.1-0.3,0.3-0.3,0.6-0.3v-0.2c-0.6-0.1-0.9-0.1-1.1,0.5h0.5v0.2
		C132.4,33.1,132.7,32.9,132.9,32.3L132.9,32.3z M133.5,32.2c-0.3-0.1-0.5-0.1-0.6,0.2C133.2,32.3,133.3,32.4,133.5,32.2L133.5,32.2
		z M133.9,31.8c-0.2-0.1-0.4-0.1-0.4,0.2c0.1,0.1,0.3,0,0.4-0.1C133.9,31.9,133.9,31.9,133.9,31.8L133.9,31.8z M135,31.4
		c-0.2,0-0.4-0.1-0.5,0.2C134.7,31.6,134.9,31.6,135,31.4L135,31.4z M135.5,31c-0.2,0-0.5,0-0.6,0.4C135.3,31.4,135.4,31.4,135.5,31
		L135.5,31z M136.6,30.6h-0.4c0-0.2,0-0.4,0.1-0.5c-0.5-0.1-0.7,0.2-0.9,0.5h0.8v0.2C136.3,30.8,136.5,30.7,136.6,30.6L136.6,30.6z
		 M137.6,29.5h-0.2c-0.2,0-0.2,0.1-0.2,0.1c0.1,0.1,0.1,0.1,0.2,0.1c0,0.1,0.1,0.1,0.2,0.1V30c0.2,0,0.6,0.2,0.7-0.2v-0.1h-0.7V29.5
		z"/>
	<path d="M144.6,28.3h0.2v0.1c0-0.1,0.1-0.1,0.2-0.1c0.1,0,0.1,0,0.1-0.2c0,0,0-0.1-0.1-0.1c-0.1,0-0.1,0-0.2-0.1
		c0.2-0.2,0.4-0.2,0.7-0.2c0.1-0.1,0.2-0.2,0.2-0.2c0.3-0.1,0.6-0.2,0.8-0.4c0.1,0.1,0.1,0.1,0.2,0.2c0.3-0.1,0.7-0.1,0.8-0.5
		c0-0.1,0-0.1,0.1-0.2c0.2,0,0.5,0.2,0.7,0c0.2,0,0.3-0.2,0.4-0.2c0.6,0.2,1.1-0.1,1.5-0.2c1.2-0.5,2.5-0.7,3.8-0.5
		c0.7,0.1,1.5,0.1,2.2,0.2c1.1,0.3,2,0.9,2.7,1.8c0.2,0.1,0.2,0.4,0.4,0.5c0.2,0.6,0.5,0.8,1.1,0.6c0.6-0.1,1.3-0.2,1.9-0.4
		c0.9-0.2,1.8-0.4,2.6-0.7c0.7,0,1.4-0.1,2.1-0.2c0.8-0.1,1.5-0.2,2.3-0.2c0.2,0,0.2-0.2,0.5-0.2c0.6-0.4,1,0,1.4,0.3
		c0,0,0.1,0,0.1,0.1l0,0c0.4,0.5,0.4,0.5,0.7,0.5c0.2,0.1,0.3,0.2,0.3,0.4c-0.2,0.3,0.1,0.7,0,0.8c-0.2,0.2-0.6,0.2-1,0.1
		c-0.5-0.1-0.9-0.1-1.4-0.1c-0.7,0.1-1.3,0-1.9,0.2c-0.7,0.2-1.3,0.2-1.9,0.4c-0.7,0.2-1.3,0.2-1.9,0.4c-1.4,0.2-2.7,0.7-4,1
		c-0.8,0.1-1.3,0.5-1.4,1.2c0,0.3-0.2,0.6-0.4,0.7c-1.4,1.1-3,2.2-4.8,2.8c-0.7,0.2-1.4,0.2-2.1,0.2c-1-0.1-1.7-0.7-1.7-1.8
		c0-0.2,0-0.5,0.1-0.8c0-0.5,0.3-0.8,0.8-1.1c1.5-0.8,3-1.6,4.7-2.1c0.9-0.2,1.7-0.5,2.5-0.8c0.3-0.1,0.5-0.3,0.5-0.6
		c0.1-1.2-0.2-1.6-1.2-2c-0.3-0.1-0.7-0.2-1.1-0.2H153c-0.5,0.1-1.1,0.2-1.6,0.4c-0.5,0.2-1.1,0.6-1.7,0.4c-0.1,0-0.2,0-0.2,0.2
		l-3,1.1c-1.6,0.8-3.1,1.6-4.5,2.7c-0.1,0.1-0.4,0.2-0.4,0.4c-0.7,1.1-1.9,1.9-2.3,3.2c-0.1,0.5-0.4,0.9-0.9,0.9
		c-0.2,0-0.1,0.2-0.1,0.2c0.1,0.2,0.1,0.5-0.1,0.7c-0.8,0.6-1.4,1.5-1.8,2.5l-0.2,0.4c-0.5,0.7-0.9,1.2-1.3,1.8
		c-0.2,0.5-0.5,0.9-1,1c-0.2,0.2-0.2,0.7-0.5,0.9c-0.4,0.2-0.7,0.5-0.8,0.8c-0.6,1-1.5,1.8-2.2,2.8c-0.6,0.9-1.5,1.8-2.2,2.6
		c-0.5,0.3-0.9,0.7-1.4,1.1c-0.5-0.3-0.9-0.8-1-1.4c-0.2-1.2,0-2.5,0.7-3.6c0.5-0.6,0.7-1.3,1.1-1.7c0.3-0.6,0.6-1.2,1-1.7
		c0.6-0.9,1.2-1.8,1.9-2.7c1.1-1.7,2.7-3.2,4.1-4.6c0.5-0.5,1.1-1.1,1.6-1.6l0.9-0.5c0.1,0.3,0.1,0.3,0.4,0h-0.4
		c0.2-0.5,0.7-0.9,1.2-1v0.2c0.2,0,0.2-0.1,0-0.2c0.1-0.1,0.2-0.3,0.2-0.5c0.6-0.5,1.1-1.1,1.3-1.9l0.6-1c0.6-1.1,1.1-2.2,1.5-3.4
		c0.2-0.7,0.7-1,1.3-0.9c0.4,0.1,0.8,0.2,1.1,0.5c0.5,0.4,0.4,0.8,0,1.1c-0.7,0.8-1,1.7-1.1,2.8h0.4c0.1-0.1,0.1-0.2,0.1-0.2
		c0.1-0.1,0.3-0.2,0.4-0.2h-0.2l-0.1-0.1c0.1,0,0.1-0.1,0.1-0.1h0.2v0.2c0.2,0,0.4,0,0.6-0.2h-0.2L144.6,28.3h-0.5
		c0.1-0.2,0.3-0.3,0.5-0.2L144.6,28.3z M136.3,36.5c-0.7,0.4-1.2,1-1.8,1.6c-0.4,0.6-0.9,1.2-1.5,1.6c-1.4,1.4-2.8,3-4,4.7
		c-0.2,0.4-0.5,0.9-0.8,1.2c-0.5,1.1-0.9,2.1-1.6,3.1c0,0.1,0.1,0.2,0.2,0.3h0.2c0.2-0.3,0.5-0.5,0.8-0.7c0.7-0.9,1.5-1.8,2.3-2.7
		l2.2-2.9c1.2-1.5,2.1-3,3.2-4.6c0.4-0.4,0.6-0.9,0.8-1.3C136.3,36.7,136.3,36.6,136.3,36.5z M131.8,44.6c-0.3,0.1-0.5,0.4-0.5,0.7
		C131.6,45.2,131.8,44.9,131.8,44.6z M132.4,43.9c-0.3,0.1-0.3,0.2-0.3,0.5C132.3,44.3,132.4,44.1,132.4,43.9L132.4,43.9z
		 M133.4,42.5c-0.6,0.2-0.8,0.7-1,1.2C132.9,43.6,133.3,43.1,133.4,42.5L133.4,42.5z M135.5,39.3c-0.3,0.2-0.4,0.4-0.4,0.8
		C135.4,40,135.5,39.8,135.5,39.3L135.5,39.3z M155.4,33.1H155c-1.1,0.4-2.1,0.9-3.1,1.4c0,0-0.2,0.1-0.2,0.1c0.2,0,0.4,0.1,0.5,0
		c1.2-0.1,2.1-0.6,3.1-1.3C155.4,33.3,155.4,33.1,155.4,33.1L155.4,33.1z M169.7,28.4c0-0.2-0.2-0.2-0.2-0.2c-0.1,0-0.1-0.1-0.2-0.1
		c-2.6,0.4-5.1,0.8-7.7,1.4c-0.1,0-0.2,0.2-0.5,0.2v0.1c0.7-0.1,1.5-0.1,2.3-0.3c1.3-0.3,2.7-0.7,3.9-0.7l2-0.2l0.2-0.2
		C169.7,28.4,169.7,28.3,169.7,28.4L169.7,28.4z"/>
	<path d="M187.5,30.1v-0.3c-0.2,0-0.5,0.1-0.6,0.3c-0.1,0-0.3,0-0.4,0.1c-0.4,0.2-0.7,0.2-0.8,0.6c-0.2,0.1-0.5,0.1-0.6,0.2
		c-0.4,0-0.6,0.2-0.8,0.6h0.5v0.2c-0.7,0.5-1.5,0.9-2,1.4c-0.8,0.2-1.4,0.9-2.1,1.3c-0.7,0.4-1.4,0.8-2.1,1.2
		c-1.2,0.7-2.5,1.5-3.9,2.1c-0.7,0.2-1.3,0.5-1.9,0.7c-1.3,0.4-2.7,0.5-4,0.1c-0.1,0-0.3-0.1-0.4-0.2c-0.4-0.6-0.8-1-1.1-1.8
		c-0.4-0.8-0.5-1.8-0.5-2.7c0.2-0.8,0.4-1.6,0.6-2.4c0.7-1.9,1.8-3.7,3.1-5.2c0.4-0.5,1-1,1.4-1.5c0.4-0.4,1.1-0.6,1.6-0.3
		c0.5,0.3,0.9,0.6,1.3,1c0.2,0.2,0,0.7-0.2,0.7h-0.2c-0.7-0.2-1.3,0.3-1.5,0.9c-0.5,0.9-1,1.5-1.4,2.2c-0.8,1.1-1.6,2.4-2.1,3.6
		c-0.1,0.5-0.3,0.9-0.6,1.3c-0.2,0.6-0.2,1.3-0.1,1.9c0.5,0.4,1.2,0.4,1.9,0.2c0.6-0.2,1.3-0.4,1.9-0.7c0.6-0.2,1.3-0.4,1.9-0.7
		c0.5-0.4,1.2-0.5,1.8-1c1.3-0.6,2.3-1.3,3.6-2.1c1-0.5,1.8-1.2,2.9-1.7c0.3-0.1,0.6-0.2,0.9-0.5c0.6-0.6,1.4-1,2.1-1.3
		c0.6-0.3,1.1-0.6,1.6-1c0.2-0.2,1.5-0.8,1.8-0.7c0.2,0.1-0.2,0.6-0.1,1.1C188.5,29.1,187.8,30,187.5,30.1z M175.4,17.9
		c0.5-0.4,1.1-0.5,1.7-0.5c0.1,0,0.2,0.2,0.3,0.2c0.2,0.4,0.7,0.6,0.7,1.1c0,0.2,0.2,0.6-0.1,0.9c-0.4,0.2-0.7,0.5-1.2,0.6h-0.5
		c-0.2-0.1-0.5-0.1-0.8-0.2C174.8,19.6,174.6,18.5,175.4,17.9z M187.5,29.1c-0.8,0.2-1.5,0.5-2.2,0.9c-1.1,0.7-2.1,1.2-3.2,1.9
		c-0.2,0.1-0.5,0.3-0.5,0.4c0.5,0,1-0.2,1.4-0.5c1.4-0.8,2.8-1.7,4.2-2.4C187.2,29.4,187.4,29.2,187.5,29.1L187.5,29.1z"/>
	<path d="M208.8,26.6c-0.1,0.3-0.2,0.6-0.4,0.8c-0.4,0.7-4,3-4.4,3.6c-0.7,0.9-1.5,0.9-2.5,0.9c-0.3,0-0.6-0.1-0.8-0.4
		c-0.1-0.3-0.2-0.5-0.2-0.7c-0.5-1-0.8-1.4-0.5-2.5c0-0.2-0.2-0.3-0.4-0.2c-0.5,0.2-1.1,0.4-1.5,0.7c-2.2,1.4-4.4,2.6-6.3,4.3
		c-0.2,0.2-0.6,0.4-0.9,0.6c-0.2,0.3-0.6,0.5-0.9,0.8c-0.7,0.6-1.3,1.1-1.7,1.9c-0.8,1-1.7,1.9-2.4,3c-0.2,0.6-0.7,0.8-0.9,1.3
		c-0.2,0.4-0.4,0.4-0.7,0.2c-0.2-0.1-0.4-0.1-0.4-0.2c-0.2-0.4-0.6-0.7-0.8-1c-0.1-0.4,0-0.8,0-1.2c0.1-0.3,0.2-0.5,0.4-0.7
		c0.8-1.5,1.6-2.9,2.5-4.5c1-1.7,2-3.6,2.9-5.5c0.4-0.8,0.9-1.5,1.2-2.5c0.3-0.6,0.9-0.8,1.5-0.5c0.1,0,0.1,0.1,0.1,0.1l0.8,0.5
		c0.2,0.2,0.3,0.6,0.1,0.8c-0.7,0.7-0.8,1.7-1.3,2.4L190,31c-0.1,0-0.1,0.2,0,0.2h0.2c2.1-1.7,4.3-3.2,6.7-4.5
		c1.3-0.6,2.6-1.1,3.8-1.7c0.9-0.5,1.9-0.1,2.5,0.6l0.8,0.9c0.2,0.4,0.2,0.8-0.2,1.1c-0.3,0.2-0.5,0.5-0.7,0.8
		c-0.2,0.6-0.7,1-0.8,1.6c1.3-0.2,5.2-3.3,6.4-3.7C208.8,26.4,208.8,26.5,208.8,26.6z"/>
	<path d="M229.1,29.3c0,0.1-0.2,0.2-0.3,0.2c-0.9,0.1-1.6,0.5-2.5,0.9c-1.3,0.6-2.6,1-3.8,1.5c-0.2,0.1-0.4,0.1-0.4,0.2
		c-1,0.8-2.3,1-3.4,1.6c-1.1,0.5-2.2,1-3.3,1.5c-1.5,0.9-3.2,1.5-5,1.7c-0.3,0.1-0.5,0.1-0.7,0.4c-1,0.4-1.9,0.1-2.8-0.2
		c-0.5-0.1-1-0.4-1.3-0.8c-0.6-0.5-0.9-1.1-1.1-1.7c-0.2-1.1-0.2-1.3,0-2.2l0.4-0.7c0.8-1.8,2-3.4,3.6-4.6c1.4-1.4,2.9-2.5,4.7-3.4
		c0.5-0.4,1.2-0.6,1.8-0.8c0.5-0.2,1.1-0.2,1.5-0.5c0.7-0.5,1.2-0.6,1.8-0.2c0.1,0.2,0.2,0,0.5,0.2c0.2,0.1,0.5,0.1,0.6,0.2
		c0.3,0.3,0.6,0.7,0.8,1.1c0.4,0.7,0.4,1.4-0.1,2c-0.7,0.8-1.1,1.7-2.1,2.1l-0.7,0.5c-1.4,1.1-3.1,1.6-4.8,1.9
		c-0.5,0.2-1,0.2-1.5,0.2c-0.7,0-1.5-0.2-2.3-0.2c-0.2,0-0.4,0.1-0.5,0.2c-0.8,1.2-1.8,2.2-2.3,3.6c-0.2,0.5,0.1,0.8,0.4,1
		c0.6,0.2,1.2,0.5,1.7,0.2c1.1,0,2.2-0.4,3.3-0.6c0.9-0.2,1.8-0.7,2.6-1c1-0.5,1.7-0.9,2.6-1.3c0.2,0.3,0.2,0.3,0.5,0
		c0.4-0.4,0.8-0.6,1.3-0.8c0.1-0.2,0.4-0.2,0.7-0.3c1.7-0.7,3.4-1.6,5-2.2c0.5-0.3,1-0.4,1.5-0.6c0.5-0.2,0.9-0.4,1.3-0.7
		c0.7-0.2,1.1-0.2,1.5,0.4c0.1,0.1,0.3,0.2,0.5,0.3C229.2,28.5,229.4,29.1,229.1,29.3z M209.1,29.4c0.2,0.2,0.5,0,0.6,0
		c0.2-0.1,0.4-0.1,0.7-0.1v0.1c0.5-0.1,1.1-0.2,1.5-0.2c0.6-0.2,1.2-0.4,1.7-0.7c1.3-0.4,2.5-1,3.6-1.8c0.6-0.4,1-0.9,1.3-1.5
		c0.2-0.2,0.2-0.5,0.2-0.7c0.2-0.2-0.1-0.4-0.2-0.6c-0.2-0.2-0.4,0.1-0.4,0.2c-0.1,0.2-0.3,0.2-0.6,0.2c-1.1,0.1-2.2,0.4-3.2,1
		c-1.3,0.6-2.3,1.5-3.3,2.2l-1.4,1.3C209.3,29,209,29.3,209.1,29.4z"/>
	<path d="M258.7,26.5c-0.1,0.1-0.3,0.2-0.4,0.2c-0.6,0.1-1.1,0.4-1.6,0.7c-1.7,1.1-3.4,2.5-5.2,3.7c-0.4,0.4-0.9,0.7-1.3,1
		c-0.5,0.3-0.8,0.7-1.2,1c-1.4,1.2-2.6,2.2-4,3.3c-0.5,0.3-0.9,0.6-1.4,0.9c-1,0.6-1.9,1.2-3,1.8c-0.4,0.2-0.8,0.4-1.2,0.4
		c-0.6,0.1-1.1,0.2-1.7,0.5c-0.3,0-0.7,0-1-0.2c-1.9-1-2.3-2.9-1.9-4.7c0-0.3,0.1-0.6,0.2-0.8c0.7-1.4,1.4-2.9,2.1-4.4
		c0.6-0.9,1.1-1.9,1.7-2.8c0.2-0.2,0.3-0.5,0.4-0.8c-0.4,0.2-0.7,0.5-1,0.8c-0.7,0.9-1.5,1.5-2.1,2.3c-0.7,0.7-1.3,1.5-1.8,2.2
		c-1.1,1.3-2.3,2.5-3.6,3.7c-0.2,0.2-0.4,0.3-0.6,0.4c-0.4,0.6-0.9,1.1-1.5,1.4c-0.3,0.1-0.4,0.2-0.6,0.3c-0.7,0.6-1.3,0.8-2.1,1.1
		c-0.4,0.1-0.7,0.1-1.1,0c-1.3-0.4-2.1-1.7-2.2-2.9c-0.2-0.9,0.2-1.7,0.5-2.6c0.8-1.8,1.7-3.6,2.9-5.2c0.5-0.8,1.2-1.5,1.9-2.1
		c1-1,2.1-2.1,3.2-3c0.8-0.5,1.7-1,2.6-1c1,0.2,1.8,0.2,2.7,0.6c0.4,0.3,0.9,0.5,1.2,0.9c0.4,0.2,0.4,0.2,0.8,0
		c0.1-0.1,0.2-0.2,0.2-0.2c0,0.4,0,0.6-0.2,0.8c-0.1,0.2,0,0.4,0.1,0.5c0.1,0.1,0.1,0.2,0.4,0.1l0.3-0.2c0.9-1.1,2.1-2,3-3.3
		c0.4-0.4,0.8-0.7,1.2-1c0.7-0.6,1.2-1.5,1.8-2.3c1-1.2,2-2.5,2.9-3.6c0.5-0.6,0.9-1,0.9-1.8c0-0.2,0.1-0.3,0.2-0.4
		c0.8-0.9,1.7-1.7,2.4-2.5c0.9-0.8,1.6-1.7,2.2-2.6c0.5-0.5,1-1,1.5-1.4c0.4-0.3,1-0.2,1.3,0.2c0.1,0.1,0.2,0.3,0.2,0.5
		c0,0.2,0,0.4-0.1,0.7c-0.1,0.2-0.1,0.5,0,0.8c0.2,0.4,0.1,0.7-0.3,1c-0.5,0.4-0.9,0.9-1.3,1.3c-1.3,1.3-2.7,2.5-3.6,4
		c-0.4,0.5-1,1-1.4,1.5c-0.6,1-1.3,2-2,2.9c-0.7,0.8-1.1,1.7-1.8,2.5c-1.1,1.3-2.1,2.8-3.1,4.3c-0.4,0.4-0.6,1.1-1.2,1.2
		c-0.1,0-0.1,0.2-0.1,0.2c0.1,0.4-0.1,0.7-0.4,0.9c-0.2,0.2-0.2,0.8-0.4,1c-0.7,0.9-1.1,1.9-1.7,2.8c-0.4,0.4-0.6,1.1-0.9,1.6
		c-0.2,0.4-0.4,0.7-0.6,1c-0.6,1-1.1,2-1.4,3.1c-0.2,1.1-0.1,1.4,1.1,1c1.2-0.2,2.5-0.9,3.6-1.6c1.5-0.9,2.8-1.9,4.1-3
		c2.1-1.8,4.4-3.3,6.5-5.1c1.4-1.1,3-1.9,4.4-2.9c0.4-0.2,0.8-0.2,1.2-0.1c0.2,0.5,0.8,0.3,1.1,0.6c0.2,0.1,0.2,0.2,0.4,0.3
		C258.8,26.1,258.8,26.5,258.7,26.5z M234,27.8c0.5-0.4,0.8-0.7,1.2-1c0.5-0.7,1-1.2,1.5-1.8c0.1-0.2,0-0.4-0.2-0.4h-1.2
		c-1.3-0.1-2.6,0.3-3.6,1.1c-0.8,0.5-1.5,1.1-2.1,1.8c-0.3,0.2-0.5,0.5-0.6,0.8c-0.2,0.5-0.6,0.8-0.9,1.2c-1,1.1-1.8,2.2-2.6,3.5
		c-0.5,0.8-0.7,1.8-1,2.8c-0.1,0.1-0.1,0.3,0.1,0.4c0.1,0,0.2,0,0.4-0.1l2.1-1.4c0.9-0.7,1.8-1.6,2.8-2.4
		C231.2,30.8,232.8,29.3,234,27.8L234,27.8z M237.4,25.5c-0.1-0.1-0.2-0.1-0.4-0.1c0,0,0,0-0.1,0.1c-0.3,0.2-0.5,0.5-0.7,0.9
		l-3.4,3.7c-0.1,0.2-0.3,0.3-0.4,0.5c-0.2,0.2-0.5,0.5-0.7,0.8c0.2-0.1,0.5-0.2,0.7-0.4c1.3-0.9,2.3-2.1,3.4-3.2
		c0.5-0.5,0.9-1,1.3-1.4l0.4-0.4C237.6,25.9,237.5,25.7,237.4,25.5L237.4,25.5z M238.9,22.9l1.4-1.6c0.2,0,0.3,0.1,0.5,0.1
		c-0.1-0.4,0-0.7,0.2-0.8c0.5-0.6,1-1,1.6-1.6c0.2-0.2,0.4-0.6,0.7-0.8c0.4-0.2,0.8-0.6,1-1c0-0.1,0.3-0.1,0.4-0.2
		c0.1-0.2,0.2-0.4,0.3-0.4c0-0.2,0.1-0.2,0.1-0.2c0,0.1,0,0.2,0.1,0.2c-0.1,0.5-0.2,0.9-0.7,1.2c-0.5,0.4-1,1-1.5,1.4
		c-0.6,0.7-1.2,1.4-1.9,2.1c0,0.1-0.1,0.1-0.2,0.1v0.1c-0.5,0.5-0.7,1.1-1.3,1.5C239.3,23.1,239.1,23,238.9,22.9L238.9,22.9z
		 M248.9,31.4c-0.3,0-0.6,0.2-0.9,0.5C248.4,31.9,248.7,31.7,248.9,31.4L248.9,31.4z M249.9,30.3c-0.2,0-0.4,0.2-0.4,0.4
		c0,0,0,0,0,0C249.9,30.8,249.9,30.8,249.9,30.3L249.9,30.3z M254.4,27.4c0.4-0.2,0.8-0.5,1.2-0.8c-0.5,0-0.9,0.2-1.3,0.5
		c-0.6,0.4-1.3,0.8-1.8,1.3c-0.6,0.2-0.9,0.5-1.3,0.9c-0.4,0.4-1,0.6-1.3,1c0.5,0.2,0.7-0.1,1.2-0.2
		C252.1,29.1,253.3,28.1,254.4,27.4L254.4,27.4z"/>
	<path d="M280.7,27.4c0.5,0,0.8-0.1,1.1-0.4c1.9-1.4,4-2.8,6-4.1c1.2-0.6,2.2-1.4,3.4-1.9c1-0.4,1.9-1,3-1.5c1.5-0.8,3.5-1.3,5.3-2
		c0.4,0.2,0.7-0.2,1.1-0.2c-0.3,0-0.6,0-0.9-0.2h-0.1c0-0.1,0-0.2,0.1-0.2c0.7-0.1,1.5,0.1,2.1,0.4l0.5,0.4c0.6,0.2,1.1,1,1.3,1.5
		c0,0.2,0.1,0.5,0.2,0.7c0.1,0.4,0,0.7-0.1,1c-0.2,0.8-0.7,1.5-0.8,2.4c0,0.1,0,0.3-0.1,0.4c-0.7,0.5-0.7,1.4-1.5,1.8
		c0.7,0.1,1,0.1,1.4,0.2v0.1c-0.4,0-0.9,0-1.3,0.2c-0.1,0-0.2,0.1-0.4,0.2v0.1c0,0,0,0.2,0.1,0.2c0.3,0,0.6,0,0.9,0.1v0.2h0.1v0.1
		c0.1,0,0.2-0.1,0.4,0c0.1,0,0.2,0.2,0.3,0.2c-0.1,0-0.2,0.1-0.4,0.1c-0.2,0-0.4-0.1-0.4-0.2H302v-0.1c-0.3,0-0.6,0-0.9,0.1
		c-0.2,0-0.4-0.1-0.2,0.2c0,0.1,0.2,0.1,0.2,0.2c0.1,0,0.1,0,0.2,0.1c-0.1,0.1-0.1,0.1-0.2,0.1c-0.2,0-0.5,0-0.8,0.1
		c-0.2,0.2,0,0.2,0.2,0.2v0.2c-0.2,0.1-0.3,0.2-0.5,0.3c-0.5,0-0.9,0.4-1.3,0.7c-1.7,1.8-3.5,3.4-5.4,5c-0.7,0.5-1.5,1-2.1,1.6
		c-0.4,0.5-1,0.8-1.5,1.1c-0.5,0.2-0.9,0.3-1.2,0.9c0,0.1-0.1,0.2-0.2,0.2c-0.5,0-0.7,0.4-1,0.8c-0.5,0.2-0.7,0.7-1.3,0.9
		c-0.5,0.1-0.8,0.6-1.4,0.8l-1.4,0.7c-0.4,0.1-0.7,0.4-0.9,0.6c-0.2,0.2-0.5,0.2-0.7,0.4c-0.6,0.2-1.2,0.2-1.8,0.2
		c-1,0-1.7-0.7-2.1-1.6c-0.3-0.7-0.4-1.6-0.2-2.4c0.1-0.4,0.4-0.9,0.6-1.2c0.8-1,1.7-1.9,2.6-2.7c0.8-0.7,1.8-1.2,2.9-1.9h0.2
		c-0.2,0.4-0.8,0.7-1.1,1.1c-0.2,0.1-0.3,0.3-0.3,0.5c0.2,0,0.5-0.1,0.6-0.2c0.6-0.6,1.4-1,2.1-1.4c0.1,0,0.1,0,0.2-0.1
		c0.9-0.7,1.8-0.9,2.7-1.4c0.9-0.4,1.9-0.7,2.8-1.1c1.1-0.5,2.3-0.9,3.4-1.2c0.9-0.2,1.7-0.6,2.6-0.7c0.4-0.1,0.7-0.2,1-0.4
		c0.2,0,0.2-0.2,0-0.5h-0.2c-0.1-0.1,0-0.2,0.1-0.2c0.7,0.1,1-0.2,1.4-0.7c0.8-0.8,1.4-1.7,1.9-2.8c0.1-0.1,0.1-0.2,0.2-0.4
		c0.9-1,1-2.1,1.2-3.4c0-0.4-0.2-0.7-0.6-0.8c-0.9-0.5-1.7,0-2.6,0.3c-0.3,0.1-0.6,0.2-1,0.3c-0.2,0.1-0.5,0-0.8,0.4
		c-0.2,0.2-0.5-0.2-0.8,0.1c-1.3,0.5-2.6,1.3-3.8,1.8c-0.4,0.1-0.7,0.3-1,0.6c-1.2,1-2.8,1.7-4.2,2.6c-1.2,0.8-2.4,1.6-3.5,2.5
		c-1.1,0.6-2.2,1.5-3.3,2.2c-0.4,0.2-0.7,0.5-1,0.9c-0.2,0.4-0.4,0.8-0.7,1.2c-0.5,0.6-0.8,1.3-1.4,1.7c-0.4,0.5-0.8,1-1.2,1.6
		c-0.8,1.2-2,2-3.4,2.4c-0.7,0.3-1.3-0.1-1.9-0.4c-0.1-0.1-0.1-0.3-0.2-0.4c-0.1-0.4-0.1-0.9-0.2-1.2c-0.3-0.4-0.3-0.9,0-1.3
		c0.6-0.9,1.1-1.8,1.6-2.7c0.1-0.2,0.4-0.2,0.5-0.4c0.1,0.4-0.2,0.6-0.5,1c-0.4,0.7-0.9,1.4-1.3,2.1c0,0.1,0,0.2,0.1,0.3
		c0,0,0.2,0,0.2-0.1c0.2-0.4,0.6-1,0.9-1.5c0.4-0.5,0.6-1.1,1.1-1.4v0.6c0.3-0.1,0.3-0.2,0.3-0.6h-0.3c0.2-0.6,0.6-1.2,1.2-1.6v0.5
		c0.2-0.1,0.4-0.1,0.4-0.2v0.4c0,0.2,0.1,0.2,0.2,0.2c0,0,0-0.1,0.1-0.1l0,0c0.1-0.2,0.2-0.4,0.2-0.6c0.1-0.1-0.1-0.2-0.2-0.3
		c0,0,0-0.1,0.2-0.1c0.1-0.4,0.1-0.4-0.4-0.5c0.2-0.4,0.9-0.2,1.2-0.7h0.1c0.2,0,0.3,0,0.3-0.1c0-0.2,0.1-0.6,0-0.7
		c-0.3-0.2-0.4,0.2-0.5,0.3l-0.5,0.2c0.1-0.2,0.1-0.2,0.2-0.3c0.2-0.4,0.5-0.8,0.8-1.2c0.2-0.3,0.5-0.7,0.8-1.1
		c0.4-0.6,0.8-1.2,1.4-1.5c0.1-0.6,0.5-1.2,1.1-1.4c0.1,0.4,0.2,0.3,0.5,0.3c0.1-0.1,0.1-0.1,0.1-0.2c-0.1-0.2-0.1-0.3-0.2-0.2
		c-0.1,0-0.2,0.1-0.2,0.1c0.2-0.5,0.5-1,0.9-1.4c0.7-0.8,1.4-1.5,2.1-2.4c0.7-1,1.6-1.9,2.6-2.9c0.4-0.5,0.9-0.9,1.3-1.3
		c0.2-0.2,0.4-0.3,0.2-0.6c-1,0.6-1.7,1.4-2.6,2.2c-0.8,0.8-1.5,1.8-2.4,2.8c-0.3,0.4-0.6,0.8-1.1,1c0-0.2,0.1-0.4,0.2-0.6
		c2-2.4,4-4.6,6.1-6.7c0.9-0.7,1.6-1.5,2.5-2.2c1.1-1,2.1-2.1,3.4-2.9c1.6-1.2,3.3-2.6,5.1-3.6c0.8-0.6,1.6-1,2.5-1.6
		c1-0.8,2.1-1.1,3.3-1.5h0.4c0.7-0.1,1.5,0,2.2,0.2c1,0.4,1.8,1.2,2.2,2.2c0.2,0.4,0.2,0.9-0.1,1.3c-1.1,1.5-2.2,3-3.8,4.1
		c-1,0.7-2,1.5-2.9,2.4c-0.1,0.1-0.2,0.1-0.2,0.2c-1.5,1-3,2.1-4.3,3.2c-0.5,0.4-1.1,0.8-1.7,1.1c-1.6,1-3,2.3-4.8,3.2l-3,1.8
		c-0.2,0.1-0.5,0.2-0.7,0.3c-0.9,0.7-2.1,1-3.1,1.6c-0.2,0.1-0.6,0.2-0.8,0.2c-0.2,0.1-0.5,0.1-0.7,0c-0.5-0.4-1-0.1-1.2,0.4
		c-0.2,0.2-0.5,0.4-0.7,0.7c-0.4,0.5-0.8,1.1-1.1,1.6c-0.8,1-1.6,2-2.2,3c-0.5,0.5-0.9,0.8-1,1.3c0,0.1-0.1,0.3-0.1,0.4
		c0.9-0.7,1.9-1.4,2.8-2.1c0.2-0.2,0.5-0.5,0.7-0.5c-0.1,0.4-0.2,0.5-0.4,0.8c0.5-0.2,1-0.5,1.2-1h-0.5c0.2-0.4,0.6-0.8,1-0.8
		C281.3,27,280.8,27.2,280.7,27.4z M272.9,30.5c0-0.2,0-0.4,0.2-0.5c0.1,0.1,0.1,0.3-0.1,0.4C273,30.5,272.9,30.6,272.9,30.5z
		 M273.4,29.8v-0.3c0.3-0.5,0.6-1,1.2-1.2C274.3,28.9,273.9,29.4,273.4,29.8L273.4,29.8L273.4,29.8z M275.5,26.9
		c-0.1,0.6-0.4,1-0.8,1.1C274.8,27.4,275,27.2,275.5,26.9L275.5,26.9z M275.6,33.8h-0.2c-0.2,0.1-0.3,0.2-0.4,0.3c0,0,0.1,0,0.1,0.1
		h0.1c0.2-0.1,0.2-0.1,0.4-0.2C275.6,33.9,275.6,33.8,275.6,33.8L275.6,33.8z M275.5,26.9c0-0.4,0.2-0.7,0.5-0.7
		C276.1,26.5,275.9,26.8,275.5,26.9L275.5,26.9z M276,26c0-0.5,0.4-0.8,0.6-1.2c1-1.3,2.1-2.5,3.1-3.9c0.3-0.4,0.6-0.7,1-0.9
		c0,0.2-0.1,0.4-0.2,0.6c-0.3,0.3-0.6,0.7-0.8,1c-1.1,1.5-2.2,2.8-3.3,4.3C276.3,26,276.2,26,276,26L276,26z M278.9,24.1h0.5
		c0.1,0.1,0.1,0.1,0.1,0.2l0.2-0.2c0.3-0.2,0.5-0.5,0.5-0.8c-0.2,0.1-0.4,0.2-0.7,0.1C279.3,23.5,279.1,23.7,278.9,24.1L278.9,24.1z
		 M293.6,31.1l1.8-1.6c0-0.1,0.1-0.2,0.1-0.4h-0.2c-0.3,0.2-0.7,0.4-1,0.5c-1.2,0.5-2.5,0.6-3.5,1.4c-0.1,0-0.2,0.1-0.2,0.1
		c-0.8,0-1.5,0.5-2.1,0.9c-1.1,0.7-2.2,1.4-3.3,1.9c-0.8,0.4-1.6,0.8-2.3,1.4c-0.6,0.8-1.4,1.5-2.2,2.1c-0.7,0.5-0.9,1-1.3,1.7
		c-0.1,0.2,0,0.5,0.2,0.4c0.2,0,0.3,0.1,0.5,0c0.7-0.2,1.4-0.2,2.1-0.5c0.2-0.2,0.6-0.2,0.9-0.4c1.8-1.2,3.5-2.1,5.2-3.4
		c1-0.6,1.9-1.3,2.9-2.1C292,32.5,292.8,31.8,293.6,31.1L293.6,31.1z M280.5,22.9c0.2-0.3,0.4-0.5,0.7-0.7c0.1,0,0-0.1,0-0.2
		c-0.1,0-0.2,0-0.2,0.2c-0.1,0-0.2,0-0.2,0.1C280.6,22.4,280.5,22.6,280.5,22.9L280.5,22.9z M280.9,34.5c0.5-0.2,0.9-0.4,1.1-0.8
		c-0.4-0.1-0.6,0.2-0.9,0.4C280.9,34.1,280.9,34.4,280.9,34.5L280.9,34.5z M285.7,37.7h-0.4c-1.4,0.9-2.9,1.5-4.2,2.4
		c0,0.1,0,0.1-0.1,0.1l0,0v0.1c0,0.1,0.1,0.1,0.1,0.2c0.3-0.1,0.6-0.2,0.9-0.2c1-0.8,2.1-1.2,3.1-1.9
		C285.5,38.1,285.8,37.9,285.7,37.7L285.7,37.7z M281.2,26.6c0.2-0.4,0.4-0.4,0.8-0.4C281.9,26.4,281.7,26.7,281.2,26.6L281.2,26.6z
		 M282.1,26.1c0-0.3,0.2-0.6,0.6-0.6c0,0,0,0,0.1,0C282.6,25.9,282.5,26.1,282.1,26.1L282.1,26.1z M283.3,25.1
		c0.1-0.4,0.2-0.4,0.6-0.2C283.8,25,283.6,25.1,283.3,25.1L283.3,25.1z M283.8,20.1c0,0.2-0.1,0.3-0.2,0.5c-0.1,0.1-0.1,0.2-0.1,0.2
		c0.1,0.1,0.2,0.1,0.2,0.1l1.1-0.8c2.2-1.3,4.5-2.8,6.8-4.2c1.1-0.9,2.4-1.7,3.6-2.5c0.1-0.1,0.2-0.2,0.4-0.2c-0.2,0.6-0.6,0.8-1,1
		c-0.6,0.5-1.4,0.9-2.1,1.4c-0.3,0.2-0.6,0.4-0.8,0.7c0.2,0.1,0.3,0.1,0.4,0c0.7-0.4,1.4-0.8,2.1-1.3c1.7-1.2,3.4-2.2,5-3.5
		c1.5-1.1,2.9-2.2,4.3-3.4c0.8-0.6,1.5-1.5,2.3-1.9h0.2c0.1-0.3,0.2-0.5,0.5-0.6c0.4-0.2,0.2-0.9,0.9-1.1c0.1,0,0-0.2-0.1-0.3
		c-0.1-0.2-0.2-0.1-0.2,0c-0.6,0.9-1.6,1.4-2.2,2.2c-0.2,0.1-0.4,0.2-0.6,0.2C304,6.8,304,6.8,304,6.9c-0.8,0.9-1.7,1.6-2.6,2.3
		c-0.1,0.2-0.2,0.2-0.4,0.2c0.1-0.2,0.1-0.3,0.2-0.5c0.9-0.5,1.6-1.2,2.3-2c0.1-0.2,0.3-0.2,0.5-0.2l0.2-0.4l1.5-1.5
		c0.4-0.4,0.7-0.8,0.9-1.3c0-0.5-0.2-0.9-0.5-1.2c-0.4-0.2-0.6-0.2-1-0.2c-0.2,0-0.4,0.2-0.6,0.3c-0.2,0.2-0.3,0.4-0.5,0.4
		c-2.6,1-4.9,2.6-7.3,4.1c-1.1,0.8-2.3,1.8-3.6,2.7c-0.7,0.6-1.4,1.2-2.1,1.9c-0.2,0.4-0.5,0.8-0.9,1c-0.3,0.3-0.6,0.9-1,1.1
		c-0.3,0.2-0.4,0.6-0.5,0.8c-0.1,0.2-0.2,0.3-0.3,0.5c-0.6,0.4-1,1.1-1.4,1.8c-0.4,0.3-0.6,0.7-1,0.9c-0.4,0.4-0.8,0.8-1.1,1.3
		C284.5,19.3,284.1,19.7,283.8,20.1L283.8,20.1z M284,31.9c0.2-0.5,0.7-0.7,1.2-0.8C285,31.6,284.5,31.8,284,31.9L284,31.9z
		 M284.2,24.5c0.4-0.5,0.9-0.8,1.4-1C285.3,24.1,285.1,24.3,284.2,24.5L284.2,24.5z M285.2,31.1c0.1-0.2,0.2-0.2,0.6-0.2
		C285.6,31.1,285.5,31.1,285.2,31.1L285.2,31.1z M287.8,36.4c0,0-0.1-0.2-0.2,0c-0.6,0.3-1.1,0.5-1.6,0.9c-0.1,0.1-0.1,0.2-0.2,0.4
		h0.4C286.7,37.3,287.5,37,287.8,36.4z M286.3,23.2c0.1-0.4,0.4-0.5,0.8-0.5C286.9,23,286.6,23.2,286.3,23.2z M287,13.8
		c0.5-0.1,0.7-0.3,0.7-0.8C287.4,13.2,287.1,13.5,287,13.8L287,13.8z M287.8,29.8c0.3-0.3,0.8-0.5,1.2-0.5
		C288.7,29.6,288.3,29.8,287.8,29.8L287.8,29.8z M288.6,35.8c-0.4-0.1-0.7,0.1-0.8,0.5C288.3,36.3,288.4,36.2,288.6,35.8L288.6,35.8
		z M288.7,12.3c0.3,0.1,0.5-0.2,0.7-0.3c0.1-0.2,0.2-0.3,0.2-0.5C289.1,11.4,288.9,11.7,288.7,12.3L288.7,12.3z M289.7,35
		c-0.4,0.1-0.7,0.3-0.9,0.6h0.4c0.1,0,0.2-0.1,0.3-0.1C289.6,35.3,289.6,35.2,289.7,35L289.7,35z M289.1,29.3
		c0.4-0.4,0.8-0.5,1.3-0.6c0,0.1,0,0.2-0.2,0.2C289.9,29.1,289.5,29.2,289.1,29.3L289.1,29.3z M289.7,11.4c0.2,0.1,0.4,0.2,0.4,0.1
		c0.2-0.2,0.6-0.4,0.6-0.8C290.2,10.7,289.8,11,289.7,11.4L289.7,11.4z M290.9,34.3c-0.5,0-1,0.2-1.2,0.7
		C290.2,35,290.7,34.8,290.9,34.3L290.9,34.3z M290.9,28.7h-0.3c0.2-0.2,0.4-0.2,0.7-0.2C291.2,28.6,291,28.7,290.9,28.7L290.9,28.7
		z M291.2,28.5c0.1-0.1,0.1-0.1,0.2-0.2h0.6C291.9,28.5,291.6,28.4,291.2,28.5L291.2,28.5z M291.7,33.5c-0.3,0.1-0.4,0.2-0.5,0.4
		C291.7,33.9,291.7,33.9,291.7,33.5L291.7,33.5z M291.5,29.5h0.2c0.9-0.2,1.8-0.5,2.7-0.8c0.1,0,0.1-0.1,0.2-0.2
		c-0.1,0-0.1-0.1-0.2-0.1c-0.9,0.2-1.9,0.5-2.8,0.8C291.7,29.3,291.6,29.4,291.5,29.5L291.5,29.5z M293.3,19.5
		c-0.5,0.2-1,0.5-1.5,0.6c0-0.1,0-0.2,0.2-0.2c0.5-0.4,0.8-0.7,1.5-0.7L293.3,19.5z M292.6,32.9c-0.5,0-0.6,0.2-0.8,0.6
		C292.1,33.5,292.4,33.3,292.6,32.9L292.6,32.9z M293,32.5c-0.4,0-0.4,0.1-0.4,0.4C292.8,32.9,293,32.7,293,32.5L293,32.5z
		 M292.8,28c0-0.1,0-0.1,0.1-0.1c0.9-0.3,1.6-0.7,2.5-0.7c-0.1,0.4-0.5,0.2-0.8,0.3C294,27.8,293.4,28,292.8,28L292.8,28z
		 M293.4,8.4c0.2,0,0.3,0,0.4-0.4C293.6,8,293.5,8,293.4,8.4L293.4,8.4z M294.5,18.8c0-0.2,0.1-0.2,0.2-0.2h0.5
		C295,18.8,294.7,18.8,294.5,18.8L294.5,18.8z M296.4,28c-0.7-0.1-1.1,0.2-1.7,0.3c-0.1,0-0.1,0.2-0.1,0.2c0.7,0.2,1.1-0.2,1.7-0.3
		C296.4,28.1,296.4,28,296.4,28L296.4,28z M295.6,30.4c-0.5,0-0.8,0.4-1,0.7C295.1,31.1,295.5,30.8,295.6,30.4L295.6,30.4z
		 M295.2,18.5c0.1-0.2,0.3-0.3,0.5-0.2c0,0.2-0.1,0.3-0.3,0.3C295.3,18.5,295.2,18.5,295.2,18.5L295.2,18.5z M295.7,13.2
		c0.2-0.4,0.6-0.7,1-0.7C296.5,12.9,296.1,13.2,295.7,13.2L295.7,13.2z M297.2,17.8c-0.4,0.3-1,0.4-1.5,0.5c0-0.2,0.2-0.2,0.4-0.2
		C296.4,17.8,296.8,17.7,297.2,17.8L297.2,17.8z M296.3,26.9c0.1-0.3,0.4-0.2,0.7-0.2c0.1,0,0.1,0,0.1,0.2
		C296.9,26.9,296.6,26.9,296.3,26.9L296.3,26.9z M296.7,12.5c0.6-0.5,0.8-0.8,1.5-1.1C297.9,12,297.3,12.4,296.7,12.5L296.7,12.5z
		 M298,17.7c-0.2,0.1-0.5,0.1-0.8,0.1c0.1-0.2,0.2-0.4,0.4-0.4h0.6C298.2,17.6,298.1,17.7,298,17.7L298,17.7z M298.5,11.1
		L298.5,11.1c0.6-0.6,1.4-1.1,2.1-1.5C300.2,10.3,299.4,10.9,298.5,11.1L298.5,11.1z M310.8,26.2c-0.4,0.3-0.8,0.3-1.2,0.2
		c-0.2-0.1-0.4-0.2-0.7,0.1c-0.2,0.1-0.4,0.1-0.6,0c-0.5-0.1-0.8-0.4-1.3-0.2c-0.4,0.1-0.7-0.2-1.1,0c-0.3,0.1-0.7,0-1-0.2
		c-0.1,0-0.2,0.2-0.4,0.2l-0.1,0.1c-0.4,0.1-0.8,0.2-1,0.1c-0.5-0.1-1-0.2-1.5-0.2c0.5-0.2,1.1-0.4,1.7-0.4h1.5
		c0.5-0.2,1.1,0.1,1.5-0.5c0.1,0,0.1,0.1,0.2,0.1c0,0.2,0.2,0.3,0.4,0.3c0.1,0,0.2-0.1,0.2-0.1c0.5-0.4,1.2-0.4,1.8-0.4
		c0.4,0,0.9,0,1.3,0c0.1,0,0.4,0.1,0.4,0.2C311.1,25.9,311.2,26,310.8,26.2L310.8,26.2z M303.5,25.4c0.5,0,1.1-0.1,1.6-0.1
		c0.2,0,0.3,0.1,0.5,0.2c-0.2,0-0.4,0.1-0.5,0.1c-0.5,0-1.1,0-1.6-0.1V25.4z"/>
	<path d="M314.5,38.3c0.5-0.2,0.9-0.3,1.1-0.8l0,0c0.1-0.1,0.3-0.1,0.5-0.2c0.4-0.1,0.8-0.3,1.1-0.6c0.2-0.3,0.3-0.2,0.6-0.3L318,36
		c0.1-0.1,0.1-0.2,0.2-0.2c-0.2,0-0.2-0.2-0.4-0.2c0.1-0.2,0.4-0.4,0.6-0.4c0.4-0.2,0.7-0.6,0.8-1c0.9-2.3,1.7-4.4,2.7-6.8
		c0-0.1,0.1-0.2,0.1-0.4c0-0.1-0.2-0.2-0.2-0.2c-0.1,0-0.2,0.1-0.4,0.1c-1.9,1.4-4,2.5-5.9,3.8c-1.1,0.7-2.2,1.3-3.4,1.6
		c-0.9,0.2-1.8-0.2-2.1-1c-0.2-0.7-0.4-1.4-0.2-2.1c0.5-1.9,1.4-3.6,2.7-5.1c0.4-0.3,0.7-0.6,1-0.9c0.4-0.2,0.9,0,1.1,0.4
		c0,0,0,0,0,0.1c0.1,0.4,0,0.7-0.1,1.1c-0.1,0.2-0.2,0.3-0.2,0.5c-0.8,0.9-1.2,1.9-1.7,2.9c-0.1,0.5-0.3,0.9-0.5,1.3
		c0.1,0.1,0.1,0.1,0.2,0.1c0.4-0.1,0.8-0.2,1.2-0.4c0.8-0.6,1.7-1.2,2.6-1.7c1.6-0.9,3.1-2,4.7-3l2.7-1.5c0.2-0.2,0.4-0.2,0.6-0.3
		c0.2-0.7,0.8-0.6,1.2-0.7c0.4-0.1,0.4,0.1,0.6,0.2c0.3,0.2,0.8,0.2,0.9,0.5c0.4,0.4,0.4,0.7,0,0.8c-0.6,0.4-0.9,1-1.2,1.6
		c-0.8,1.5-1.5,3.1-2.1,4.7c-0.4,0.8-0.7,1.6-1.1,2.4c0,0.1-0.1,0.2,0.2,0.2c0.1,0.1,0.2,0,0.3,0c0.4-0.2,0.8-0.4,1.3-0.4v0.2
		c-0.2,0-0.4,0.1-0.5,0.2h0.5v0.3c-0.2,0-0.4-0.1-0.5-0.3c-0.2,0-0.5,0-0.6,0.3c0.2,0,0.3,0.1,0.3,0.2h0.2c0.1,0,0.1,0.1,0.1,0.1
		l0,0c0,0,0,0.1-0.1,0.1c-0.1,0.1-0.1,0.1-0.2,0v-0.2h-0.3v-0.2c-0.2,0-0.4,0.1-0.5,0.2h0.5l0.3,0.2c-0.1,0.4-0.4,0.2-0.6,0.2
		c-0.1,0.4-0.3,0.4-0.6,0.4c0-0.1,0-0.2-0.2-0.1c0.1,0,0.2,0.1,0.2,0.1c0,0.2,0,0.4-0.2,0.5c0-0.1,0-0.2-0.2-0.1
		c0.1,0,0.2,0,0.2,0.1c-0.7,0.5-1,1.3-1.4,1.9v0.2c0.2,0.5,0,0.7-0.4,1c-0.5,0.6-0.6,1.5-1.2,2.1c0.1,0.7-0.4,1.1-0.7,1.6
		c-0.2,0.2-0.2,0.7-0.5,1c-0.2,0.4-0.2,1-0.7,1.1c-0.1,0.3-0.2,0.6-0.2,0.9c-0.2,0.1-0.2,0.4-0.4,0.4c-0.3,0.3-0.5,0.7-0.7,1.1
		c-0.1,0.3-0.3,0.5-0.5,0.6c-0.4,0.2-0.6,0.7-0.7,1.2c-0.1,0.2-0.2,0.3-0.2,0.5c-0.1,0.3-0.8,0.2-0.6,0.8c-0.2,0.2-0.4,0.5-0.6,0.7
		l-0.6,0.9c-0.2,0.2-0.4,0.4-0.6,0.6c-0.5,0.4-1,1-1.5,1.5c-0.7,0.5-1.4,0.8-2.3,0.6c-1.1-0.2-1.8-0.8-2.3-1.7l-0.5-1.5
		c-0.3-0.8-0.4-1.7,0.2-2.4c0.2-0.9,0.8-1.5,1.3-2.2c0.9-1.2,1.9-2.2,2.9-3.3c0.2-0.2,0.2-0.4,0.4-0.3c0.1,0.1,0.2,0.2,0.2,0.4
		c0.2-0.1,0.3-0.2,0.4-0.4c0.2-0.2,0.6-0.2,0.6-0.5h-0.6c0.2-0.6,0.8-1,1.2-1.3c0-0.1,0.2,0,0.2,0v0.2c-0.1,0.1-0.1,0.2-0.2,0.4
		c0.2,0,0.2-0.2,0.4-0.4c0.4,0,0.7-0.3,1-0.7c0.1,0,0.2-0.1,0.2-0.2c-0.2,0-0.2,0.1-0.2,0.2h-0.6c0.3-0.4,0.6-0.6,1-0.9
		c0-0.1,0.2,0,0.3-0.1c-0.2,0.2-0.3,0.5-0.5,0.8C314.1,39.1,314.4,38.8,314.5,38.3l-0.4,0c0-0.3,0.2-0.4,0.5-0.5L314.5,38.3z
		 M317.9,37.5c0-0.2-0.2-0.2-0.4-0.2c-0.4,0.4-0.8,0.5-1.2,0.8l-1.1,0.8c-0.5,0.3-0.9,0.6-1.2,1c-0.8,0.9-1.8,1.7-2.8,2.6
		c-0.7,0.6-1.4,1.3-1.7,2.1c-0.2,0.3-0.4,0.5-0.6,0.7c-0.7,0.6-1.1,1.4-1.6,2.1c-0.1,0.2-0.2,0.5-0.4,0.6c-0.8,0.6-0.5,1.5-0.8,2.2
		c0,0.1,0.2,0.2,0.2,0.4c0.2,0.1,0.4,0.2,0.5,0.2c0.7,0,1.4-0.2,2-0.6c1.8-1.5,3.4-3.2,4.5-5.2c0.2-0.3,0.4-0.7,0.7-0.7
		c0-0.4,0.2-0.8,0.6-0.9v-0.3c0.4-0.8,0.8-1.6,1.3-2.6c0.4-0.7,0.8-1.2,1-1.9C317.3,38.3,317.6,37.9,317.9,37.5z M314.5,45.4
		c0.1,0,0.2,0,0.3-0.1v-0.5c0.2-0.2,0.5-0.2,0.4-0.6c0-0.1,0-0.3,0.1-0.4c0.4-0.2,0.2-0.3,0.1-0.5l-0.5,0.2c0,0.3-0.2,0.6-0.5,0.8
		c-0.2,0.1-0.2,0.2-0.2,0.4c-0.9,1.6-1.9,3-3.1,4.3c-0.6,0.6-1.1,1.3-1.8,1.8c-0.3,0.2-0.5,0.4-0.7,0.7h0.3c0.6-0.3,1.1-0.7,1.6-1.2
		c0.2-0.4,0.6-0.6,1-0.6c0.2,0,0.2-0.2,0.1-0.2c-0.1-0.1-0.2-0.1-0.2-0.2l0.4-0.4c0.1-0.2,0.2-0.2,0.4-0.5c0.2,0.3,0.4-0.1,0.6-0.1
		v0.1c0.1,0.2,0.1,0.2,0.2,0.4c0-0.1,0-0.2,0.1-0.4v-0.1h-0.3c0-0.2-0.2-0.4-0.1-0.5c0.2-0.5,0.2-0.5,0.7-0.3l0.1-0.6
		c0.2-0.4,0.4-0.7,0.6-1c-0.1-0.1-0.2-0.2,0.1-0.2c0-0.1,0.1-0.2,0.2-0.2C314.4,45.6,314.4,45.5,314.5,45.4z M309.4,43
		c0.2,0,0.4-0.2,0.4-0.5C309.4,42.6,309.4,42.6,309.4,43L309.4,43z M310.6,41.7h-0.4c0-0.2,0.1-0.4,0.4-0.5c0,0,0,0,0,0V41.7
		L310.6,41.7z M311.9,40.5c-0.2,0-0.2,0.1-0.2,0.2C311.9,40.7,311.9,40.6,311.9,40.5z M314.5,37.7c0.2-0.2,0.3-0.3,0.6-0.2
		C315,37.9,314.8,37.9,314.5,37.7z M315.1,45.4h-0.2v0.5C315.2,45.8,315.1,45.6,315.1,45.4L315.1,45.4z M315.1,37.5
		c0.2-0.2,0.4-0.5,0.8-0.4c-0.1,0.1-0.2,0.2-0.2,0.4H315.1z M315.6,42.9v-0.1c-0.2,0.1-0.2,0.2-0.2,0.5
		C315.9,43.2,315.9,43.2,315.6,42.9L315.6,42.9z M315.6,42.8c0.3-0.1,0.2-0.2,0.2-0.6C315.7,42.3,315.6,42.5,315.6,42.8L315.6,42.8z
		 M316.2,36.7c0.1-0.4,0.4-0.5,0.8-0.5C316.7,36.5,316.5,36.9,316.2,36.7L316.2,36.7z M316.7,40.9c-0.4,0.1-0.2,0.3-0.2,0.5
		C316.7,41.4,316.7,41.1,316.7,40.9L316.7,40.9z M317.1,41c0,0-0.1,0-0.2-0.6c-0.2,0.1-0.2,0.4-0.2,0.5h0.2
		C316.9,41,316.9,41.2,317.1,41L317.1,41z M316.9,36.2c0.2-0.4,0.4-0.4,0.7-0.4C317.5,36,317.3,36.3,316.9,36.2L316.9,36.2z
		 M322.4,33.3h-0.2c-0.1,0-0.2,0.1-0.2,0.1c0.1,0.1,0.2,0.2,0.2,0.2h0.2V33.3z M324,33.1h0.2c-0.2-0.1-0.2-0.2-0.2-0.3v-0.2
		c0.3,0,0.7,0.4,1,0.1h0.2c0,0.1-0.1,0.2-0.2,0.3c-0.2,0.2-0.5,0.2-0.7,0.2h-0.1v0.2c0,0.1-0.2,0.2-0.2,0.2c-0.1,0-0.1-0.1-0.1-0.2
		C323.9,33.3,324,33.1,324,33.1L324,33.1z M325.7,31.5c-0.4,0.5-1.1,0.8-1.7,0.8C324.5,31.9,325,31.5,325.7,31.5L325.7,31.5z
		 M325.7,32.2c0.2,0,0.2,0.1,0.4,0.1c0,0.1-0.2,0.2-0.3,0.2c0,0-0.1,0-0.1,0c0,0-0.1-0.1-0.1-0.2C325.6,32.3,325.7,32.2,325.7,32.2
		L325.7,32.2z M325.9,31.5L325.9,31.5c0.6-0.4,1.3-0.8,1.9-0.8v0.2c-0.4,0-0.8,0.3-1.2,0.6L325.9,31.5z M326.1,32.3L326.1,32.3
		L326.1,32.3C326.1,32.3,326.1,32.3,326.1,32.3L326.1,32.3z M326.6,31.8c0,0.5,0,0.5-0.5,0.5C326.1,31.9,326.1,31.8,326.6,31.8
		L326.6,31.8z M327.1,31.6h-0.6v-0.2C326.7,31.5,327.1,31.5,327.1,31.6L327.1,31.6z M333.3,29.8h0.1c0-0.2-0.2-0.4-0.4-0.5
		c-0.4,0-0.7,0.1-1,0.3c-1.1,0.2-2.2,0.5-3.2,0.9c-0.3,0.1-0.6,0.2-0.9,0.2c0.1-0.2,0.1-0.2,0.2-0.2c1.4-0.7,2.9-1,4.4-1.4
		c0.2-0.1,0.6-0.1,0.7-0.2c1.4-0.2,2.9-0.3,4.3-0.2c0.6,0,1.1,0.2,1.8,0.2c-0.5,0.2-1.1,0.2-1.6,0.2c-0.7-0.1-1.4,0-2.1,0.2
		c-0.3,0.1-0.6,0.1-0.9,0.1C334.5,29.9,334,29.9,333.3,29.8L333.3,29.8L333.3,29.8L333.3,29.8L333.3,29.8z M328,31.2v-0.3
		c0.2,0,0.4,0,0.5,0.3H328z M333.3,29.9c-0.1,0.5-0.5,0.2-0.7,0.2c0,0-0.1,0-0.1-0.2l0.1-0.1L333.3,29.9z"/>
</g>
</svg>
