<?xml version="1.0" encoding="utf-8"?>
<!-- Generator: Adobe Illustrator 16.0.0, SVG Export Plug-In . SVG Version: 6.00 Build 0)  -->
<!DOCTYPE svg PUBLIC "-//W3C//DTD SVG 1.1//EN" "http://www.w3.org/Graphics/SVG/1.1/DTD/svg11.dtd">
<svg version="1.1" id="Layer_1" xmlns="http://www.w3.org/2000/svg" xmlns:xlink="http://www.w3.org/1999/xlink" x="0px" y="0px"
	 width="170.414px" height="88px" viewBox="0 0 170.414 88" enable-background="new 0 0 170.414 88" xml:space="preserve">
<rect x="87.839" y="27.443" fill="#FFFFFF" width="2.04" height="33.241"/>
<polygon fill="#FFFFFF" points="92.611,52.44 98.776,52.44 98.776,54.543 96.796,54.543 96.796,60.447 94.591,60.447 94.591,54.543 
	92.611,54.543 "/>
<polygon fill="#FFFFFF" points="99.542,60.448 99.542,52.441 105.026,52.441 105.026,54.309 101.746,54.309 101.746,55.454 
	104.521,55.454 104.521,57.323 101.746,57.323 101.746,58.579 105.157,58.579 105.157,60.448 "/>
<g>
	<defs>
		<rect id="SVGID_1_" width="170.414" height="88"/>
	</defs>
	<clipPath id="SVGID_2_">
		<use xlink:href="#SVGID_1_"  overflow="visible"/>
	</clipPath>
	<path clip-path="url(#SVGID_2_)" fill="#FFFFFF" d="M110.191,55.499c-0.066-0.835-0.505-1.312-1.196-1.312
		c-0.775,0-1.242,0.79-1.242,2.336c0,1.124,0.205,2.18,1.326,2.18c0.71,0,1.046-0.59,1.13-1.357h2.121
		c-0.196,2.069-1.438,3.314-3.213,3.314c-2.224,0-3.569-1.623-3.569-4.227c0-2.591,1.477-4.203,3.354-4.203
		c1.747-0.117,3.258,1.203,3.376,2.95c0.007,0.106,0.009,0.213,0.005,0.319H110.191z"/>
	<polygon clip-path="url(#SVGID_2_)" fill="#FFFFFF" points="113.021,60.448 113.021,52.441 115.227,52.441 115.227,55.143 
		117.31,55.143 117.31,52.441 119.515,52.441 119.515,60.448 117.31,60.448 117.31,57.345 115.227,57.345 115.227,60.448 	"/>
	<polygon clip-path="url(#SVGID_2_)" fill="#FFFFFF" points="125.034,56.812 124.95,54.987 124.95,52.44 127.062,52.44 
		127.062,60.448 124.997,60.448 122.597,56.088 122.681,57.912 122.681,60.448 120.568,60.448 120.568,52.44 122.633,52.44 	"/>
	<path clip-path="url(#SVGID_2_)" fill="#FFFFFF" d="M134.89,56.399c0,2.726-1.542,4.261-3.531,4.261
		c-2.111,0-3.522-1.558-3.522-4.282c0-2.515,1.429-4.148,3.522-4.148C133.759,52.229,134.89,54.287,134.89,56.399 M130.041,56.399
		c0,1.023,0.261,2.303,1.317,2.303c0.952,0,1.326-0.979,1.326-2.303c0-1.09-0.374-2.246-1.346-2.213
		C130.34,54.187,130.041,55.388,130.041,56.399"/>
	<polygon clip-path="url(#SVGID_2_)" fill="#FFFFFF" points="135.729,60.448 135.729,52.441 137.934,52.441 137.934,58.579 
		140.962,58.579 140.962,60.448 	"/>
	<path clip-path="url(#SVGID_2_)" fill="#FFFFFF" d="M148.435,56.399c0,2.726-1.542,4.261-3.532,4.261
		c-2.11,0-3.521-1.558-3.521-4.282c0-2.515,1.429-4.148,3.521-4.148C147.304,52.229,148.435,54.287,148.435,56.399 M143.586,56.399
		c0,1.023,0.261,2.303,1.316,2.303c0.953,0,1.327-0.979,1.327-2.303c0-1.09-0.374-2.246-1.346-2.213
		C143.885,54.187,143.586,55.388,143.586,56.399"/>
	<path clip-path="url(#SVGID_2_)" fill="#FFFFFF" d="M155.72,60.471h-1.42l-0.084-0.79c-0.462,0.653-1.228,1.022-2.027,0.979
		c-1.719,0-3.261-1.323-3.261-4.115c0-2.558,1.346-4.314,3.522-4.314c1.691-0.04,3.106,1.279,3.186,2.969h-2.093
		c-0.067-0.574-0.552-1.008-1.13-1.012c-0.869,0-1.28,0.934-1.28,2.347c0,1.134,0.299,2.169,1.411,2.169
		c0.539-0.024,0.999-0.399,1.13-0.923h-0.971v-1.736h3.017V60.471z"/>
	<polygon clip-path="url(#SVGID_2_)" fill="#FFFFFF" points="160.849,60.448 158.644,60.448 158.644,57.534 156.14,52.441 
		158.606,52.441 159.765,55.154 160.922,52.441 163.353,52.441 160.849,57.49 	"/>
	<path clip-path="url(#SVGID_2_)" fill="#FFFFFF" d="M92.854,35.56v-8.008h3.241c1.522-0.06,2.807,1.126,2.866,2.649
		c0.061,1.522-1.126,2.806-2.648,2.866c-0.048,0.002-0.096,0.002-0.144,0.002h-1.11v2.491H92.854z M95.974,31.2
		c0.514,0,0.888-0.245,0.888-0.934c0-0.745-0.709-0.845-1.177-0.845H95.06V31.2H95.974z"/>
	<path clip-path="url(#SVGID_2_)" fill="#FFFFFF" d="M101.606,32.768v2.792h-2.204v-8.008h3.175c2.243,0,2.98,0.723,2.98,2.28
		c0.106,0.832-0.356,1.634-1.13,1.957c0.71,0.312,1.14,0.512,1.14,2.125c0,1.045-0.028,1.401,0.234,1.401v0.245h-2.233
		c-0.091-0.462-0.128-0.932-0.112-1.402c0-1.045-0.149-1.39-1.177-1.39H101.606z M101.606,31.011h0.869
		c0.681,0,1.046-0.2,1.046-0.756c0.028-0.436-0.302-0.811-0.737-0.839c-0.05-0.004-0.101-0.002-0.149,0.004h-1.028V31.011z"/>
	<path clip-path="url(#SVGID_2_)" fill="#FFFFFF" d="M113.284,31.512c0,2.725-1.542,4.26-3.532,4.26
		c-2.11,0-3.521-1.557-3.521-4.282c0-2.514,1.429-4.149,3.521-4.149C112.153,27.34,113.284,29.398,113.284,31.512 M108.436,31.512
		c0,1.023,0.261,2.302,1.316,2.302c0.953,0,1.327-0.978,1.327-2.302c0-1.09-0.374-2.247-1.346-2.213
		C108.734,29.298,108.436,30.5,108.436,31.512"/>
	<polygon clip-path="url(#SVGID_2_)" fill="#FFFFFF" points="114.104,35.56 114.104,27.552 119.337,27.552 119.337,29.421 
		116.31,29.421 116.31,30.878 118.72,30.878 118.72,32.746 116.31,32.746 116.31,35.56 	"/>
	<polygon clip-path="url(#SVGID_2_)" fill="#FFFFFF" points="120.121,35.56 120.121,27.552 125.604,27.552 125.604,29.421 
		122.325,29.421 122.325,30.566 125.1,30.566 125.1,32.435 122.325,32.435 122.325,33.691 125.735,33.691 125.735,35.56 	"/>
	<path clip-path="url(#SVGID_2_)" fill="#FFFFFF" d="M130.079,29.876c-0.016-0.221-0.134-0.423-0.318-0.545
		c-0.173-0.101-0.37-0.151-0.57-0.145c-0.484,0-0.699,0.167-0.699,0.456c0,1.201,3.866,0.456,3.866,3.37
		c0,1.858-1.299,2.758-3.147,2.758c-1.55,0.095-2.884-1.086-2.979-2.637c-0.001-0.014-0.002-0.029-0.002-0.043h2.111
		c0.03,0.252,0.162,0.481,0.365,0.634c0.182,0.131,0.4,0.201,0.625,0.2c0.551,0,0.916-0.211,0.916-0.589
		c0-1.212-3.867-0.378-3.867-3.437c0-1.701,1.231-2.558,2.914-2.558c1.457-0.127,2.742,0.951,2.869,2.408
		c0.004,0.043,0.007,0.085,0.008,0.128H130.079z"/>
	<path clip-path="url(#SVGID_2_)" fill="#FFFFFF" d="M136.59,29.876c-0.016-0.221-0.134-0.423-0.318-0.545
		c-0.173-0.101-0.37-0.151-0.57-0.145c-0.484,0-0.7,0.167-0.7,0.456c0,1.201,3.867,0.456,3.867,3.37
		c0,1.858-1.299,2.758-3.147,2.758c-1.552,0.094-2.885-1.087-2.979-2.637c-0.001-0.014-0.002-0.029-0.002-0.043h2.111
		c0.03,0.252,0.162,0.481,0.365,0.634c0.182,0.131,0.4,0.201,0.625,0.2c0.551,0,0.916-0.211,0.916-0.589
		c0-1.212-3.867-0.378-3.867-3.437c0-1.701,1.231-2.558,2.914-2.558c1.457-0.127,2.742,0.951,2.869,2.408
		c0.004,0.043,0.007,0.085,0.008,0.128H136.59z"/>
	<rect x="139.652" y="27.552" clip-path="url(#SVGID_2_)" fill="#FFFFFF" width="2.204" height="8.008"/>
	<path clip-path="url(#SVGID_2_)" fill="#FFFFFF" d="M149.761,31.512c0,2.725-1.542,4.26-3.532,4.26
		c-2.11,0-3.521-1.557-3.521-4.282c0-2.514,1.429-4.149,3.521-4.149C148.63,27.34,149.761,29.398,149.761,31.512 M144.912,31.512
		c0,1.023,0.261,2.302,1.316,2.302c0.953,0,1.327-0.978,1.327-2.302c0-1.09-0.374-2.247-1.346-2.213
		C145.211,29.298,144.912,30.5,144.912,31.512z"/>
	<polygon clip-path="url(#SVGID_2_)" fill="#FFFFFF" points="155.001,31.923 154.916,30.099 154.916,27.552 157.027,27.552 
		157.027,35.56 154.964,35.56 152.562,31.2 152.646,33.024 152.646,35.56 150.534,35.56 150.534,27.552 152.6,27.552 	"/>
	<path clip-path="url(#SVGID_2_)" fill="#FFFFFF" d="M157.541,35.56l2.41-8.007h2.242l2.409,8.007h-2.194l-0.263-1.056h-2.194
		l-0.252,1.056H157.541z M161.053,29.965l-0.682,2.87h1.392L161.053,29.965z"/>
	<polygon clip-path="url(#SVGID_2_)" fill="#FFFFFF" points="165.183,35.56 165.183,27.552 167.386,27.552 167.386,33.691 
		170.414,33.691 170.414,35.56 	"/>
	<path clip-path="url(#SVGID_2_)" fill="#FFFFFF" d="M0,60.659V27.34h13.165c7.854,0,11.648,4.396,11.648,11.245
		c0,7.173-3.491,11.708-11.344,11.708H8.954v10.365H0z M12.672,42.52c2.087,0,3.604-1.018,3.604-3.887
		c0-3.101-2.883-3.517-4.78-3.517H8.954v7.404H12.672z"/>
	<polygon clip-path="url(#SVGID_2_)" fill="#FFFFFF" points="26.56,60.659 26.56,27.34 37.373,27.34 42.19,48.118 47.008,27.34 
		57.821,27.34 57.821,60.659 49.778,60.659 49.778,50.479 49.893,45.295 50.348,39.28 50.271,39.28 45.301,60.659 39.08,60.659 
		34.109,39.28 34.034,39.28 34.413,44.186 34.603,49.368 34.603,60.659 	"/>
	<polygon clip-path="url(#SVGID_2_)" fill="#FFFFFF" points="60.328,27.341 85.368,27.341 85.368,36.087 77.325,36.087 
		77.325,60.66 68.371,60.66 68.371,36.087 60.328,36.087 	"/>
	<polygon clip-path="url(#SVGID_2_)" fill="#FFFFFF" points="92.882,48.067 92.882,40.059 95.544,40.059 96.731,45.053 
		97.917,40.059 100.58,40.059 100.58,48.067 98.599,48.067 98.599,45.62 98.627,44.374 98.739,42.928 98.72,42.928 97.497,48.067 
		95.965,48.067 94.741,42.928 94.722,42.928 94.816,44.107 94.862,45.354 94.862,48.067 	"/>
	<path clip-path="url(#SVGID_2_)" fill="#FFFFFF" d="M101.56,40.059h2.204v4.794c0,0.789,0.131,1.468,1.037,1.468
		c0.795,0,1.028-0.602,1.028-1.468v-4.794h2.205v4.527c0,2.569-1,3.692-3.233,3.692c-2.082,0-3.241-0.945-3.241-3.704V40.059z"/>
	<path clip-path="url(#SVGID_2_)" fill="#FFFFFF" d="M112.611,42.384c-0.016-0.221-0.134-0.423-0.318-0.545
		c-0.173-0.101-0.37-0.151-0.57-0.145c-0.484,0-0.699,0.167-0.699,0.456c0,1.201,3.866,0.456,3.866,3.371
		c0,1.857-1.299,2.758-3.147,2.758c-1.551,0.095-2.884-1.087-2.979-2.638c-0.001-0.014-0.002-0.029-0.002-0.043h2.111
		c0.03,0.252,0.162,0.481,0.365,0.634c0.182,0.131,0.4,0.201,0.625,0.2c0.551,0,0.916-0.211,0.916-0.589
		c0-1.212-3.868-0.378-3.868-3.437c0-1.702,1.232-2.558,2.915-2.558c1.457-0.127,2.742,0.951,2.869,2.408
		c0.004,0.043,0.007,0.085,0.008,0.128H112.611z"/>
	<rect x="115.674" y="40.059" clip-path="url(#SVGID_2_)" fill="#FFFFFF" width="2.204" height="8.008"/>
	<path clip-path="url(#SVGID_2_)" fill="#FFFFFF" d="M123.213,43.118c-0.066-0.834-0.505-1.312-1.196-1.312
		c-0.774,0-1.242,0.789-1.242,2.335c0,1.124,0.205,2.18,1.326,2.18c0.71,0,1.046-0.589,1.13-1.356h2.121
		c-0.195,2.068-1.438,3.314-3.213,3.314c-2.224,0-3.568-1.624-3.568-4.227c0-2.591,1.476-4.204,3.354-4.204
		c1.747-0.117,3.258,1.204,3.376,2.951c0.007,0.106,0.009,0.212,0.005,0.319H123.213z"/>
	<path clip-path="url(#SVGID_2_)" fill="#FFFFFF" d="M33.15,25.004c0.835-5.012,2.703-7.022,2.703-7.022s3.654-5.36,11.937-5.36
		c5.122,0.116,10.099,1.725,14.32,4.63c0.014,0.01,0.029,0.018,0.046,0.023c0.098,0.034,0.204-0.018,0.238-0.116
		C66.574,5.601,75.602,3.762,76.412,3.618c0.04-0.007,0.076-0.027,0.103-0.057c2.481-2.677,4.536-2.356,4.536-2.356
		c1.468-0.117,2.882,0.581,3.682,1.818c0.036,0.061,0.104,0.095,0.175,0.089c8.013-0.588,11.977,3.428,12.735,4.296
		c0.005,0.006,0.01,0.012,0.017,0.017c0.076,0.069,0.195,0.063,0.266-0.014l1.156-1.27c0.045-0.05,0.113-0.072,0.18-0.058
		c0.102,0.021,0.168,0.122,0.146,0.224c-0.227,0.722-0.555,1.407-0.975,2.036c-0.042,0.065-0.039,0.149,0.007,0.211l1.45,2.006
		c0.39,0.844,0.845-0.098,0.845-0.098l0.999-2.786c0.026-0.073,0.094-0.122,0.17-0.125c0.105-0.004,0.193,0.077,0.197,0.182
		c-0.048,1.454-0.369,2.885-0.948,4.22c-0.018,0.045-0.018,0.096,0.001,0.141l1.466,3.565c0.152,0.434,0.346,0.853,0.575,1.252
		c0.029,0.046,0.077,0.076,0.132,0.083c0.103,0.014,0.196-0.058,0.211-0.16c0.86-5.55,5.351-9.945,5.351-9.945
		s2.728-3.345,8.899-3.345s8.251,1.981,8.251,1.981s7.048,4.71,7.048,12.765c-0.044,2.302-0.456,4.563-1.188,6.714h1.037
		c0.696-2.233,1.089-4.561,1.142-6.925c0.146-4.287-2.485-8.356-2.485-8.356s-3.581-7.332-13.959-7.332
		s-14.202,11.133-14.202,11.133c-0.292,1.481-1.122-1.277-1.25-1.72c-0.011-0.039-0.009-0.08,0.006-0.118
		c1.467-3.83,0.299-5.721-0.257-6.347c-0.026-0.029-0.061-0.049-0.099-0.058c-0.102-0.023-0.201,0.041-0.225,0.142
		c-0.236,1.021-0.783,2.717-0.783,2.717c-0.268,0.974-0.804,0.536-0.804,0.536c-0.151-0.113-0.227-0.301-0.195-0.487
		c1.428-4.05,0.046-5.993-0.593-6.627c-0.03-0.03-0.07-0.048-0.113-0.052c-0.104-0.01-0.196,0.067-0.205,0.171
		c-0.323,3.08-1.028,3.889-1.331,4.098c-0.075,0.051-0.176,0.041-0.238-0.023c-4.271-4.21-11.099-3.921-12.029-3.86
		c-0.062,0.005-0.123-0.026-0.157-0.079c-0.223-0.35-1.242-1.645-4.188-1.814c-2.032-0.072-3.949,0.944-5.03,2.666
		c-0.026,0.041-0.067,0.07-0.115,0.08C65.991,5.007,62.188,14.078,61.61,15.616c-0.006,0.014-0.012,0.026-0.021,0.038
		c-0.058,0.086-0.175,0.108-0.26,0.049c-9.18-6.116-17.632-3.811-17.632-3.811c-4.099,0.877-7.628,3.466-9.696,7.113
		c-0.988,1.898-1.686,3.92-2.086,5.999H33.15z"/>
	<path clip-path="url(#SVGID_2_)" fill="#FFFFFF" d="M106.521,63.229c0.501,1.985,0.314,3.117,0.195,3.548
		c-0.007,0.022-0.024,0.042-0.048,0.051c-0.04,0.016-0.085-0.006-0.1-0.046c-0.535-1.299-1.285-2.493-2.203-3.553h-0.963
		l-0.036,0.271l-0.001,0.011l-0.03,3.999c0,0.029-0.017,0.058-0.045,0.07c-0.04,0.02-0.087,0.002-0.105-0.038l-1.15-2.445
		l-0.423,0.032l-2.729,7.146c-0.979,2.601-1.803,5.258-2.469,7.957v0.004l-0.389,2.589l-0.002,0.012l-0.254,0.826
		c-0.004,0.008-0.008,0.017-0.012,0.024c-1.815,2.747-10.672,3.213-12.226,3.091l-0.013-0.001c-3.83-0.509-7.283-2.57-9.549-5.7
		c-0.961-1.718-1.338-3.701-1.072-5.651l-0.195-0.39L72.008,75.1c-0.013,0.001-0.026,0.005-0.037,0.013l-2.901,1.934l-0.01,0.009
		l-1.057,0.998c-0.011,0.01-0.025,0.017-0.039,0.02c-0.045,0.009-0.088-0.02-0.096-0.064c-0.528-2.973,1.318-5.773,1.842-6.495
		c0.013-0.021,0.017-0.044,0.011-0.066c-0.012-0.043-0.056-0.069-0.099-0.057c-4.45,1.188-5.173,5.843-5.281,6.928
		c-0.003,0.023-0.016,0.045-0.037,0.058c-0.036,0.023-0.085,0.013-0.108-0.023c-1.329-2.178-1.88-7.983-1.887-8.058V70.29
		c-0.001-2.854-1.17-1.88-1.17-1.88l-0.912,1.083c-0.014,0.017-0.033,0.027-0.055,0.029c-0.044,0.003-0.082-0.029-0.086-0.073
		c-0.059-2.077,0.022-4.154,0.215-6.221h-2.419l-0.251,0.418c-0.013,0.022-0.037,0.037-0.063,0.039
		c-0.043,0.003-0.081-0.03-0.084-0.073c0.003-0.128,0.015-0.256,0.02-0.384h-1.216c0.002,0.362,0.007,0.726,0.038,1.088
		c0.003,0.038-0.023,0.073-0.06,0.082c-5.21,1.327-10.016,3.908-13.998,7.519c-0.942,1.04-0.423,0.877-0.423,0.877
		c5.451-4.506,13.527-6.614,14.516-6.86c0.007-0.001,0.014-0.002,0.02-0.002c0.045,0.002,0.08,0.039,0.078,0.084
		c-0.04,1.793,0.258,1.854,0.36,1.825c0.019-0.007,0.036-0.021,0.045-0.038l1.966-3.733c0.016-0.031,0.05-0.047,0.084-0.041
		c0.043,0.007,0.071,0.048,0.064,0.091c-0.335,2.145,0.207,5.781,0.271,6.2c0.004,0.025-0.005,0.051-0.025,0.067
		C54.131,74.91,48.048,83.777,47.302,85.82c-0.747,2.046-0.357,2.111-0.357,2.111c1.808-5.209,12.78-16.316,14.016-17.558
		c0.013-0.012,0.03-0.02,0.048-0.021c0.043-0.004,0.08,0.028,0.084,0.07c0.398,3.941,1.674,7.742,3.736,11.123
		c0.015,0.022,0.04,0.035,0.067,0.034c0.043-0.002,0.077-0.039,0.075-0.082c0.004-4.113,1.331-6.259,1.846-6.936
		c0.019-0.024,0.051-0.035,0.08-0.028c0.043,0.01,0.069,0.053,0.059,0.095c-0.799,4.105,0.388,5.859,0.745,6.279
		c0.011,0.012,0.025,0.021,0.041,0.024c0.041,0.01,0.083-0.017,0.093-0.058c0.581-1.849,1.955-3.343,3.749-4.075
		c0.011-0.005,0.023-0.007,0.035-0.006c0.042,0.003,0.074,0.04,0.071,0.082c-0.307,7.167,9.379,10.534,9.449,10.559l0.003,0.001
		c5.457,1.704,12.576-0.999,12.576-0.999c1.983-0.423,3.451-2.103,3.606-4.123v-0.007c0.194-1.959,1.335-6.537,1.363-6.652
		l0.003-0.007l3.199-7.889c0.01-0.021,0.026-0.037,0.049-0.045c0.042-0.014,0.087,0.01,0.101,0.051
		c0.982,2.786,1.618,3.217,1.847,3.272c0.007,0.002,0.012,0.002,0.018,0.003c0.044,0.002,0.081-0.031,0.083-0.076l0.224-4.435
		c0-0.003,0-0.006,0-0.009c-0.129-1.684,0.617-1.002,0.617-1.002l1.929,5.025c0.005,0.015,0.015,0.026,0.026,0.035
		c0.036,0.028,0.088,0.021,0.115-0.016c1.544-2.127,1.197-5.139,0.618-7.336H106.521z"/>
	<path clip-path="url(#SVGID_2_)" fill="#FFFFFF" d="M125.922,63.229h-2.281c3.767,1.83,6.741,3.604,7.812,4.263
		c0.029,0.019,0.068,0.014,0.095-0.01c0.032-0.03,0.034-0.08,0.004-0.112C130.262,65.933,128.218,64.521,125.922,63.229"/>
	<path clip-path="url(#SVGID_2_)" fill="#FFFFFF" d="M135.41,40.348c-1.53,0.985-3.229,1.681-5.011,2.051
		c0,0,1.734,3.338,1.252,4.911l-2.278,0.032c0,0-0.514-1.123-0.931,0.225c0,0-1.349,0.706-1.381-0.739
		c-0.031-1.443,1.605-1.059,1.605-1.059s0.609-0.096,1.22,0.803s0.61-0.609,0.61-0.609s-0.771-3.146-2.568-4.526
		c2.525-0.005,5.034-0.4,7.438-1.171c0.023-0.01,0.052,0.002,0.061,0.026C135.436,40.312,135.429,40.335,135.41,40.348"/>
</g>
</svg>
